<svg width="88" height="82" viewBox="0 0 88 82" fill="none" xmlns="http://www.w3.org/2000/svg">
<circle cx="34.9902" cy="35" r="35" fill="#EBF0F6"/>
<path d="M56.0085 76.6666C52.3196 76.6666 48.8529 75.9666 45.6085 74.5666C42.364 73.1666 39.5418 71.2666 37.1418 68.8666C34.7418 66.4666 32.8418 63.6444 31.4418 60.3999C30.0418 57.1555 29.3418 53.6888 29.3418 49.9999C29.3418 46.311 30.0418 42.8444 31.4418 39.5999C32.8418 36.3555 34.7418 33.5333 37.1418 31.1333C39.5418 28.7333 42.364 26.8333 45.6085 25.4333C48.8529 24.0333 52.3196 23.3333 56.0085 23.3333C62.764 23.3333 68.6196 25.511 73.5751 29.8666C78.5307 34.2221 81.4751 39.6444 82.4085 46.1333C81.5196 45.6888 80.5974 45.3444 79.6418 45.0999C78.6862 44.8555 77.6974 44.711 76.6751 44.6666C75.8307 41.4221 74.3085 38.5333 72.1085 35.9999C69.9085 33.4666 67.2085 31.5555 64.0085 30.2666V31.3333C64.0085 32.7999 63.4862 34.0555 62.4418 35.0999C61.3974 36.1444 60.1418 36.6666 58.6751 36.6666H53.3418V41.9999C53.3418 42.7555 53.0862 43.3888 52.5751 43.8999C52.064 44.411 51.4307 44.6666 50.6751 44.6666H45.3418V49.9999H61.3418C61.8307 49.9999 62.2862 50.1221 62.7085 50.3666C63.1307 50.611 63.4529 50.9555 63.6751 51.3999C62.9196 52.5999 62.3418 53.8666 61.9418 55.1999C61.5418 56.5332 61.3418 57.911 61.3418 59.3332C61.3418 62.1333 62.064 64.7332 63.5085 67.1333C64.9529 69.5332 66.4307 71.7777 67.9418 73.8666C66.1196 74.7555 64.2085 75.4444 62.2085 75.9333C60.2085 76.4221 58.1418 76.6666 56.0085 76.6666ZM53.3418 71.1999V65.9999C51.8751 65.9999 50.6196 65.4777 49.5751 64.4333C48.5307 63.3888 48.0085 62.1333 48.0085 60.6666V57.9999L35.2085 45.1999C35.0751 45.9999 34.9529 46.7999 34.8418 47.5999C34.7307 48.3999 34.6751 49.1999 34.6751 49.9999C34.6751 55.3777 36.4418 60.0888 39.9751 64.1333C43.5085 68.1777 47.964 70.5332 53.3418 71.1999ZM76.0085 76.6666C75.6974 76.6666 75.4307 76.5777 75.2085 76.3999C74.9862 76.2221 74.8307 75.9999 74.7418 75.7332C74.2529 74.1777 73.564 72.7332 72.6751 71.3999C71.7862 70.0666 70.8307 68.7555 69.8085 67.4666C68.8751 66.311 68.1196 65.0444 67.5418 63.6666C66.964 62.2888 66.6751 60.8444 66.6751 59.3332C66.6751 56.7555 67.5862 54.5555 69.4085 52.7332C71.2307 50.911 73.4307 49.9999 76.0085 49.9999C78.5862 49.9999 80.7862 50.911 82.6085 52.7332C84.4307 54.5555 85.3418 56.7555 85.3418 59.3332C85.3418 60.8444 85.0418 62.2777 84.4418 63.6333C83.8418 64.9888 83.0974 66.2666 82.2085 67.4666C81.1862 68.7555 80.2307 70.0666 79.3418 71.3999C78.4529 72.7332 77.764 74.1777 77.2751 75.7332C77.1862 75.9999 77.0307 76.2221 76.8085 76.3999C76.5862 76.5777 76.3196 76.6666 76.0085 76.6666ZM76.0085 69.1332C76.4529 68.3777 76.9418 67.6777 77.4751 67.0332C78.0085 66.3888 78.5196 65.7332 79.0085 65.0666C79.6307 64.2221 80.1751 63.3221 80.6418 62.3666C81.1085 61.411 81.3418 60.3999 81.3418 59.3332C81.3418 57.8666 80.8196 56.611 79.7751 55.5666C78.7307 54.5221 77.4751 53.9999 76.0085 53.9999C74.5418 53.9999 73.2862 54.5221 72.2418 55.5666C71.1974 56.611 70.6751 57.8666 70.6751 59.3332C70.6751 60.3999 70.9085 61.411 71.3751 62.3666C71.8418 63.3221 72.3862 64.2221 73.0085 65.0666C73.5418 65.7332 74.064 66.3888 74.5751 67.0332C75.0862 67.6777 75.564 68.3777 76.0085 69.1332ZM76.0085 62.6666C75.0751 62.6666 74.2862 62.3444 73.6418 61.6999C72.9974 61.0555 72.6751 60.2666 72.6751 59.3332C72.6751 58.3999 72.9974 57.611 73.6418 56.9666C74.2862 56.3221 75.0751 55.9999 76.0085 55.9999C76.9418 55.9999 77.7307 56.3221 78.3751 56.9666C79.0196 57.611 79.3418 58.3999 79.3418 59.3332C79.3418 60.2666 79.0196 61.0555 78.3751 61.6999C77.7307 62.3444 76.9418 62.6666 76.0085 62.6666Z" fill="#1D6ADA"/>
</svg>
