<svg width="88" height="82" viewBox="0 0 88 82" fill="none" xmlns="http://www.w3.org/2000/svg">
<circle cx="34.9951" cy="35" r="35" fill="#EBF0F6"/>
<path d="M53.4038 74V68.2667C51.0482 67.7333 49.0149 66.7111 47.3038 65.2C45.5927 63.6889 44.3371 61.5556 43.5371 58.8L48.4704 56.8C49.1371 58.9333 50.126 60.5556 51.4371 61.6667C52.7482 62.7778 54.4704 63.3333 56.6038 63.3333C58.426 63.3333 59.9704 62.9222 61.2371 62.1C62.5038 61.2778 63.1371 60 63.1371 58.2667C63.1371 56.7111 62.6482 55.4778 61.6704 54.5667C60.6927 53.6556 58.426 52.6222 54.8704 51.4667C51.0482 50.2667 48.426 48.8333 47.0038 47.1667C45.5816 45.5 44.8704 43.4667 44.8704 41.0667C44.8704 38.1778 45.8038 35.9333 47.6704 34.3333C49.5371 32.7333 51.4482 31.8222 53.4038 31.6V26H58.7371V31.6C60.9593 31.9556 62.7927 32.7667 64.2371 34.0333C65.6816 35.3 66.7371 36.8444 67.4038 38.6667L62.4704 40.8C61.9371 39.3778 61.1816 38.3111 60.2038 37.6C59.226 36.8889 57.8927 36.5333 56.2038 36.5333C54.2482 36.5333 52.7593 36.9667 51.7371 37.8333C50.7149 38.7 50.2038 39.7778 50.2038 41.0667C50.2038 42.5333 50.8704 43.6889 52.2038 44.5333C53.5371 45.3778 55.8482 46.2667 59.1371 47.2C62.2038 48.0889 64.526 49.5 66.1038 51.4333C67.6816 53.3667 68.4704 55.6 68.4704 58.1333C68.4704 61.2889 67.5371 63.6889 65.6704 65.3333C63.8038 66.9778 61.4927 68 58.7371 68.4V74H53.4038Z" fill="#1D6ADA"/>
</svg>
