<svg width="24" height="25" viewBox="0 0 24 25" fill="none" xmlns="http://www.w3.org/2000/svg">
<g id="Page-1">
<g id="Phone">
<path id="Path" fill-rule="evenodd" clip-rule="evenodd" d="M18.6651 14.4345C17.8945 14.3364 17.1381 14.1484 16.4112 13.8745C15.8203 13.657 15.1569 13.7969 14.7042 14.2345C14.1064 14.8401 13.1672 14.9797 12.4794 14.4788C11.3931 13.6876 10.4369 12.7317 9.64561 11.6456C9.1446 10.958 9.28421 10.0188 9.8898 9.42121C10.3194 8.96972 10.4586 8.31507 10.2499 7.72789C9.95089 6.98634 9.7405 6.21209 9.62308 5.42123C9.46986 4.64472 8.78769 4.0857 7.99605 4.0879H5.60885C5.15395 4.08734 4.71925 4.27567 4.40859 4.6079C4.10745 4.94167 3.96205 5.38747 4.0085 5.83456C4.2665 8.31749 5.11223 10.7033 6.47571 12.7945C7.71227 14.7373 9.3603 16.3849 11.3034 17.6212C13.3979 18.9689 15.7761 19.8132 18.2517 20.0879H18.385C18.7907 20.0906 19.182 19.9379 19.4786 19.6612C19.8116 19.3567 20.0004 18.9257 19.9987 18.4745V16.0879C20.0309 15.2807 19.4609 14.5741 18.6651 14.4345Z" stroke="#1D6ADA" stroke-width="2" stroke-linecap="round"/>
</g>
</g>
</svg>
