<svg width="88" height="82" viewBox="0 0 88 82" fill="none" xmlns="http://www.w3.org/2000/svg">
<circle cx="34.9902" cy="35" r="35" fill="#EBF0F6"/>
<path d="M26.6758 71.3334V60.6667C26.6758 59.1556 27.198 57.889 28.2424 56.8667C29.2869 55.8445 30.5424 55.3334 32.0091 55.3334H40.7424C41.6313 55.3334 42.4758 55.5556 43.2758 56.0001C44.0758 56.4445 44.7202 57.0445 45.2091 57.8001C46.498 59.5334 48.0869 60.889 49.9758 61.8667C51.8647 62.8445 53.8758 63.3334 56.0091 63.3334C58.1869 63.3334 60.2202 62.8445 62.1091 61.8667C63.998 60.889 65.5647 59.5334 66.8091 57.8001C67.3869 57.0445 68.0647 56.4445 68.8424 56.0001C69.6202 55.5556 70.4313 55.3334 71.2758 55.3334H80.0091C81.5202 55.3334 82.7869 55.8445 83.8091 56.8667C84.8313 57.889 85.3424 59.1556 85.3424 60.6667V71.3334H66.6758V65.2668C65.1202 66.3779 63.4425 67.2223 61.6424 67.8001C59.8424 68.3779 57.9647 68.6668 56.0091 68.6668C54.098 68.6668 52.2313 68.3667 50.4091 67.7668C48.5869 67.1668 46.898 66.3112 45.3424 65.2001V71.3334H26.6758ZM56.0091 60.6667C54.3202 60.6667 52.7202 60.2779 51.2091 59.5001C49.698 58.7223 48.4313 57.6445 47.4091 56.2668C46.6536 55.1556 45.7091 54.2779 44.5758 53.6334C43.4424 52.989 42.2091 52.6667 40.8758 52.6667C41.8536 51.0223 43.9202 49.7223 47.0758 48.7667C50.2313 47.8112 53.2091 47.3334 56.0091 47.3334C58.8091 47.3334 61.7869 47.8112 64.9425 48.7667C68.098 49.7223 70.1647 51.0223 71.1424 52.6667C69.8536 52.6667 68.6313 52.989 67.4758 53.6334C66.3202 54.2779 65.3647 55.1556 64.6091 56.2668C63.6313 57.689 62.3869 58.7779 60.8758 59.5334C59.3647 60.289 57.7424 60.6667 56.0091 60.6667ZM34.6758 52.6667C32.4536 52.6667 30.5647 51.889 29.0091 50.3334C27.4536 48.7779 26.6758 46.889 26.6758 44.6667C26.6758 42.4001 27.4536 40.5001 29.0091 38.9667C30.5647 37.4334 32.4536 36.6667 34.6758 36.6667C36.9424 36.6667 38.8424 37.4334 40.3758 38.9667C41.9091 40.5001 42.6758 42.4001 42.6758 44.6667C42.6758 46.889 41.9091 48.7779 40.3758 50.3334C38.8424 51.889 36.9424 52.6667 34.6758 52.6667ZM77.3424 52.6667C75.1202 52.6667 73.2313 51.889 71.6758 50.3334C70.1202 48.7779 69.3424 46.889 69.3424 44.6667C69.3424 42.4001 70.1202 40.5001 71.6758 38.9667C73.2313 37.4334 75.1202 36.6667 77.3424 36.6667C79.6091 36.6667 81.5091 37.4334 83.0424 38.9667C84.5758 40.5001 85.3424 42.4001 85.3424 44.6667C85.3424 46.889 84.5758 48.7779 83.0424 50.3334C81.5091 51.889 79.6091 52.6667 77.3424 52.6667ZM56.0091 44.6667C53.7869 44.6667 51.898 43.889 50.3424 42.3334C48.7869 40.7779 48.0091 38.889 48.0091 36.6667C48.0091 34.4001 48.7869 32.5001 50.3424 30.9667C51.898 29.4334 53.7869 28.6667 56.0091 28.6667C58.2758 28.6667 60.1758 29.4334 61.7091 30.9667C63.2425 32.5001 64.0091 34.4001 64.0091 36.6667C64.0091 38.889 63.2425 40.7779 61.7091 42.3334C60.1758 43.889 58.2758 44.6667 56.0091 44.6667Z" fill="#1D6ADA"/>
</svg>
