<svg width="88" height="82" viewBox="0 0 88 82" fill="none" xmlns="http://www.w3.org/2000/svg">
<circle cx="34.9902" cy="35" r="35" fill="#EBF0F6"/>
<path d="M53.3418 74V68.6667H74.6751V49.7333C74.6751 44.5333 72.864 40.1222 69.2418 36.5C65.6196 32.8778 61.2085 31.0667 56.0085 31.0667C50.8085 31.0667 46.3974 32.8778 42.7751 36.5C39.1529 40.1222 37.3418 44.5333 37.3418 49.7333V66H34.6751C33.2085 66 31.9529 65.4778 30.9085 64.4333C29.864 63.3889 29.3418 62.1333 29.3418 60.6667V55.3333C29.3418 54.4 29.5751 53.5222 30.0418 52.7C30.5085 51.8778 31.164 51.2222 32.0085 50.7333L32.2085 47.2C32.564 44.1778 33.4418 41.3778 34.8418 38.8C36.2418 36.2222 37.9974 33.9778 40.1085 32.0667C42.2196 30.1556 44.6418 28.6667 47.3751 27.6C50.1085 26.5333 52.9862 26 56.0085 26C59.0307 26 61.8974 26.5333 64.6085 27.6C67.3196 28.6667 69.7418 30.1444 71.8751 32.0333C74.0085 33.9222 75.764 36.1556 77.1418 38.7333C78.5196 41.3111 79.4085 44.1111 79.8085 47.1333L80.0085 50.6C80.8529 51 81.5085 51.6 81.9751 52.4C82.4418 53.2 82.6751 54.0444 82.6751 54.9333V61.0667C82.6751 61.9556 82.4418 62.8 81.9751 63.6C81.5085 64.4 80.8529 65 80.0085 65.4V68.6667C80.0085 70.1333 79.4862 71.3889 78.4418 72.4333C77.3974 73.4778 76.1418 74 74.6751 74H53.3418ZM48.0085 55.3333C47.2529 55.3333 46.6196 55.0778 46.1085 54.5667C45.5974 54.0556 45.3418 53.4222 45.3418 52.6667C45.3418 51.9111 45.5974 51.2778 46.1085 50.7667C46.6196 50.2556 47.2529 50 48.0085 50C48.764 50 49.3974 50.2556 49.9085 50.7667C50.4196 51.2778 50.6751 51.9111 50.6751 52.6667C50.6751 53.4222 50.4196 54.0556 49.9085 54.5667C49.3974 55.0778 48.764 55.3333 48.0085 55.3333ZM64.0085 55.3333C63.2529 55.3333 62.6196 55.0778 62.1085 54.5667C61.5974 54.0556 61.3418 53.4222 61.3418 52.6667C61.3418 51.9111 61.5974 51.2778 62.1085 50.7667C62.6196 50.2556 63.2529 50 64.0085 50C64.764 50 65.3974 50.2556 65.9085 50.7667C66.4196 51.2778 66.6751 51.9111 66.6751 52.6667C66.6751 53.4222 66.4196 54.0556 65.9085 54.5667C65.3974 55.0778 64.764 55.3333 64.0085 55.3333ZM40.0751 51.2C39.764 46.4889 41.1862 42.4444 44.3418 39.0667C47.4974 35.6889 51.4307 34 56.1418 34C60.0974 34 63.5751 35.2556 66.5751 37.7667C69.5751 40.2778 71.3862 43.4889 72.0085 47.4C67.964 47.3556 64.2418 46.2667 60.8418 44.1333C57.4418 42 54.8307 39.1111 53.0085 35.4667C52.2974 39.0222 50.7974 42.1889 48.5085 44.9667C46.2196 47.7444 43.4085 49.8222 40.0751 51.2Z" fill="#1D6ADA"/>
</svg>
