<svg width="24" height="25" viewBox="0 0 24 25" fill="none" xmlns="http://www.w3.org/2000/svg">
<rect y="0.525635" width="24" height="24" rx="12" fill="#FEFEFE"/>
<g clip-path="url(#clip0_70_520)">
<rect x="4" y="4.52563" width="16" height="16" rx="8" fill="#1D6ADA"/>
<path d="M12 4.52563C7.58176 4.52563 4 8.10739 4 12.5256C4 16.2773 6.58304 19.4255 10.0675 20.2901V14.9704H8.41792V12.5256H10.0675V11.4722C10.0675 8.74932 11.2998 7.48724 13.9731 7.48724C14.48 7.48724 15.3546 7.58676 15.7123 7.68596V9.90195C15.5235 9.88211 15.1955 9.8722 14.7882 9.8722C13.4765 9.8722 12.9696 10.3692 12.9696 11.661V12.5256H15.5827L15.1338 14.9704H12.9696V20.4671C16.9309 19.9887 20.0003 16.6159 20.0003 12.5256C20 8.10739 16.4182 4.52563 12 4.52563Z" fill="white"/>
</g>
<defs>
<clipPath id="clip0_70_520">
<rect x="4" y="4.52563" width="16" height="16" rx="8" fill="white"/>
</clipPath>
</defs>
</svg>
