<svg width="170" height="35" viewBox="0 0 170 35" fill="none" xmlns="http://www.w3.org/2000/svg">
<path d="M2.42794 29.2043C5.80635 33.2333 12.0388 34.7707 17.4344 32.6904V30.1348C12.3257 30.7599 7.58053 29.2043 5.33129 26.0984C2.14656 21.7056 5.26186 15.9637 6.27959 14.09C9.87727 7.46151 18.0575 3.2241 18.2694 3.06323C15.9215 3.71219 12.3677 5.00644 8.85223 7.67356C3.96823 11.379 1.73362 15.77 0.765225 18.0953C0.65925 18.3585 -1.69596 24.2996 2.42611 29.2043H2.42794Z" fill="#FEFEFE"/>
<path d="M36.7624 6.02847C33.384 1.99946 27.1515 0.462076 21.7559 2.54239V5.098C26.8646 4.47281 31.6098 6.02847 33.859 9.13432C37.0438 13.5271 33.9284 19.269 32.9107 21.1428C29.313 27.7712 21.1328 32.0087 20.9209 32.1695C23.2688 31.5206 26.8226 30.2263 30.3381 27.5592C35.2221 23.8537 37.4567 19.4628 38.4251 17.1375C38.5311 16.8743 40.8863 10.9331 36.7642 6.02847H36.7624Z" fill="#FEFEFE"/>
<path d="M22.9843 25.7968C27.4224 23.956 29.5346 18.8447 27.6929 14.4044C25.8529 9.9641 20.7442 7.85088 16.3078 9.69355C11.8696 11.5344 9.75745 16.6456 11.5992 21.0841C13.441 25.5244 18.5479 27.6376 22.9843 25.7968ZM16.4302 9.98969C20.704 8.21649 25.6245 10.2511 27.3968 14.5269C29.171 18.8045 27.1356 23.7256 22.8618 25.5007C18.5881 27.2739 13.6676 25.2392 11.8952 20.9616C10.1229 16.6858 12.1565 11.7629 16.4302 9.98969Z" fill="#FEFEFE"/>
<path d="M22.9843 25.7968C27.4224 23.956 29.5346 18.8447 27.6929 14.4044C25.8529 9.9641 20.7442 7.85088 16.3078 9.69355C11.8696 11.5344 9.75745 16.6456 11.5992 21.0841C13.441 25.5244 18.5479 27.6376 22.9843 25.7968ZM16.4302 9.98969C20.704 8.21649 25.6245 10.2511 27.3968 14.5269C29.171 18.8045 27.1356 23.7256 22.8618 25.5007C18.5881 27.2739 13.6676 25.2392 11.8952 20.9616C10.1229 16.6858 12.1565 11.7629 16.4302 9.98969Z" fill="#FEFEFE"/>
<path d="M21.6881 10.7284C22.1339 10.5602 22.4189 10.3372 22.4135 10.0611C22.4007 9.43047 20.8732 9.1325 19.3712 9.16358C17.8693 9.19465 16.3564 9.55844 16.3692 10.1891C16.3765 10.4907 16.7018 10.7266 17.3394 10.8911C17.8967 11.0337 18.6331 11.105 19.4114 11.0885C20.2592 11.0702 21.1107 10.9478 21.6881 10.7302V10.7284ZM17.1969 9.82716C17.6446 9.65898 18.3791 9.50542 19.3767 9.48531C21.1253 9.44875 22.0882 9.85275 22.0919 10.0703C22.0974 10.2878 21.1527 10.732 19.4041 10.7686C18.6532 10.7851 17.9479 10.7174 17.418 10.5821C16.8443 10.4341 16.689 10.2567 16.6871 10.1855C16.6853 10.0922 16.8589 9.95695 17.1969 9.82899V9.82716Z" fill="#FEFEFE"/>
<path d="M19.4853 14.1485C15.5825 14.1485 13.0774 12.2839 13.0391 12.2547L13.1852 12.0646C13.2401 12.1066 18.7526 16.1996 26.1763 12.0554L26.2933 12.2638C23.7627 13.6769 21.4476 14.1485 19.4853 14.1485Z" fill="#FEFEFE"/>
<path d="M19.7339 17.5267C14.9997 17.5267 11.4386 15.2783 11.3838 15.2435L11.5153 15.0424C11.5957 15.0936 19.6608 20.1811 27.6181 14.8669L27.7533 15.0662C24.9833 16.9162 22.1987 17.5267 19.7339 17.5267Z" fill="#FEFEFE"/>
<path d="M19.4044 20.8958C14.3669 20.8958 11.1237 18.7972 11.0762 18.7661L11.2096 18.5669C11.2808 18.6144 18.4634 23.2522 28.0797 18.5596L28.1857 18.7753C24.9242 20.3657 21.9368 20.8976 19.4044 20.8976V20.8958Z" fill="#FEFEFE"/>
<path d="M19.5893 24.0272C19.4175 24.0272 19.2458 24.0235 19.0722 24.018C15.9204 23.901 13.4884 22.7585 12.0029 21.8225L12.1308 21.6196C13.5907 22.541 15.9825 23.6634 19.0813 23.7786C22.8288 23.9211 25.6993 22.4861 27.0752 21.6196L27.2031 21.8225C25.8674 22.6634 23.1486 24.0272 19.5893 24.0272Z" fill="#FEFEFE"/>
<path d="M17.139 10.6663C17.0842 10.6973 11.8329 13.7849 14.6431 24.6179C14.7765 24.6983 14.8861 24.8062 14.9701 24.9287C11.9882 13.9823 17.2029 10.9039 17.2559 10.8747L17.139 10.6663Z" fill="#FEFEFE"/>
<path d="M17.8646 26.159C17.4681 23.3164 17.3785 20.428 17.5996 17.5745C17.7769 15.2803 18.1569 12.9842 18.727 10.7522L18.959 10.8125C18.3908 13.0318 18.0144 15.3132 17.8372 17.5927C17.6179 20.4299 17.7074 23.2999 18.1021 26.1261L17.8646 26.159Z" fill="#FEFEFE"/>
<path d="M21.9348 26.0106L21.6972 25.9777C21.9512 24.1826 22.0535 22.3564 22.0005 20.5503C21.9037 17.2506 21.2971 13.9784 20.1953 10.8232L20.4219 10.7446C21.531 13.9236 22.1431 17.2196 22.2399 20.543C22.2929 22.3619 22.1906 24.2027 21.9348 26.0125V26.0106Z" fill="#FEFEFE"/>
<path d="M25.1473 24.3508L24.9207 24.2741C25.5018 22.5502 26.6035 18.0825 24.3196 13.8341C23.6472 12.5855 22.7427 11.4686 21.6318 10.518L21.7871 10.3352C22.9218 11.3059 23.8445 12.4448 24.5315 13.7207C26.8612 18.0514 25.7393 22.5977 25.1491 24.3508H25.1473Z" fill="#FEFEFE"/>
<path d="M56.4365 14.0217C55.431 14.3721 53.502 14.8956 51.3387 14.8956C48.6726 14.8956 46.6686 14.2379 45.2218 12.8701C43.932 11.6616 43.1904 9.88183 43.1904 7.89499C43.1904 3.73468 46.4434 0.630371 51.6958 0.630371C53.6612 0.630371 55.199 1.03093 55.9224 1.37003L55.3082 3.47295C54.4233 3.0906 53.345 2.78791 51.6071 2.78791C48.2427 2.78791 45.993 4.69737 45.993 7.71064C45.993 10.7239 48.1176 12.7563 51.4911 12.7563C52.5989 12.7563 53.4224 12.6129 53.8182 12.424V9.07389H51.0384V7.00512H56.4387V14.0194L56.4365 14.0217Z" fill="#FEFEFE"/>
<path d="M59.1982 0.773682H61.8643V12.5195H68.2792V14.7499H59.1982V0.773682Z" fill="#FEFEFE"/>
<path d="M83.4243 7.63541C83.4243 12.1257 80.2555 15.0002 75.9471 15.0002C71.6386 15.0002 68.7451 11.9641 68.7451 7.91534C68.7451 3.59117 71.8297 0.527832 76.1518 0.527832C80.4739 0.527832 83.4243 3.56613 83.4243 7.63769V7.63541ZM71.5727 7.83569C71.5727 10.6259 73.3015 12.9177 76.0858 12.9177C78.8702 12.9177 80.6013 10.6965 80.6013 7.72872C80.6013 5.05456 78.9975 2.60571 76.1017 2.60571C73.206 2.60571 71.5749 4.98401 71.5749 7.83569H71.5727Z" fill="#FEFEFE"/>
<path d="M85.749 0.960236C86.5861 0.796372 88.2376 0.648438 89.7981 0.648438C91.8705 0.648438 93.0374 0.901061 94.0201 1.50645C94.9414 2.01624 95.6102 2.91522 95.6102 4.18516C95.6102 5.4551 94.7776 6.62945 93.2035 7.17794V7.22801C94.632 7.57622 96.1311 8.68685 96.1311 10.6965C96.1311 11.9664 95.5397 12.9473 94.6844 13.6255C93.6289 14.4699 91.9023 14.8977 89.1589 14.8977C87.6098 14.8977 86.4519 14.7908 85.749 14.702V0.960236ZM88.39 6.44739H89.9164C91.9 6.44739 92.9077 5.63717 92.9077 4.49013C92.9077 3.12232 91.759 2.61252 90.0757 2.61252C89.1771 2.61252 88.6949 2.6717 88.39 2.73087V6.44966V6.44739ZM88.39 12.8381C88.7722 12.9063 89.2704 12.9154 89.9574 12.9154C91.6816 12.9154 93.3127 12.367 93.3127 10.5986C93.3127 8.97816 91.784 8.3614 89.8686 8.3614H88.3878V12.8381H88.39Z" fill="#FEFEFE"/>
<path d="M101.534 10.6965L100.196 14.7499H97.3936L102.334 0.773682H105.806L110.894 14.7499H107.962L106.525 10.6965H101.534ZM106.038 8.70285L104.764 5.17979C104.461 4.32861 104.216 3.49109 103.986 2.73777H103.945C103.727 3.50246 103.51 4.34909 103.237 5.16613L102.002 8.70285H106.038Z" fill="#FEFEFE"/>
<path d="M112.939 0.773682H115.605V12.5195H122.02V14.7499H112.939V0.773682Z" fill="#FEFEFE"/>
<path d="M134.475 14.2742C133.807 14.6088 132.278 15.0002 130.326 15.0002C125.481 15.0002 122.487 12.1554 122.487 7.91997C122.487 3.68456 125.818 0.525635 130.686 0.525635C132.624 0.525635 133.993 0.91936 134.587 1.23116L133.984 3.32042C133.227 2.97676 132.101 2.68544 130.795 2.68544C127.505 2.68544 125.29 4.59263 125.29 7.80163C125.29 10.6533 127.212 12.8063 130.745 12.8063C131.948 12.8063 133.208 12.5719 133.998 12.2123L134.473 14.272L134.475 14.2742Z" fill="#FEFEFE"/>
<path d="M145.414 8.60719H139.502V12.5923H146.094V14.7521H136.836V0.775879H145.767V2.93569H139.504V6.44738H145.416V8.60719H145.414Z" fill="#FEFEFE"/>
<path d="M148.465 0.773682H151.131V12.5195H157.546V14.7499H148.465V0.773682Z" fill="#FEFEFE"/>
<path d="M159.596 0.773682H162.262V12.5195H168.677V14.7499H159.596V0.773682Z" fill="#FEFEFE"/>
<path d="M43.1927 31.3819V27.3513C43.1927 26.8256 43.27 26.3795 43.4247 26.0154C43.5794 25.649 43.7841 25.3577 44.0389 25.1415C44.2937 24.9253 44.644 24.7568 45.0876 24.6385C45.5312 24.5179 45.977 24.4405 46.4274 24.4041C46.8756 24.3677 47.4374 24.3494 48.113 24.3494H49.4438V22.6334C49.4438 22.3285 49.3619 22.1123 49.1958 21.9848C49.0321 21.8596 48.6613 21.7959 48.088 21.7959C47.6171 21.7959 47.3032 21.8619 47.144 21.9916C46.9848 22.1236 46.9051 22.2875 46.9051 22.4901V22.6721C46.9051 22.7996 46.846 22.9043 46.7254 22.9839C46.6049 23.0636 46.432 23.1023 46.2045 23.1023H44.3119C43.8456 23.1023 43.6113 22.9452 43.6113 22.6334V22.4536C43.6113 22.135 43.6795 21.8392 43.816 21.5706C43.9525 21.302 44.1777 21.0426 44.4916 20.7968C44.8055 20.551 45.265 20.3553 45.8724 20.2142C46.4798 20.0708 47.21 20.0002 48.0607 20.0002C49.6121 20.0002 50.7063 20.221 51.341 20.6602C51.9756 21.1018 52.2918 21.8869 52.2918 23.0203V24.618C53.0857 24.791 53.6203 25.1005 53.8933 25.5466C54.1662 25.9926 54.3027 26.6344 54.3027 27.472V31.2135C54.3027 31.9577 54.2345 32.5517 54.0957 32.9955C53.957 33.437 53.6976 33.7898 53.3177 34.0538C52.9356 34.3178 52.4647 34.4908 51.9028 34.5773C51.341 34.6637 50.5789 34.707 49.6167 34.707H47.8742C47.1599 34.707 46.5457 34.6774 46.0316 34.616C45.5175 34.5568 45.0876 34.4589 44.7464 34.3224C44.4029 34.1858 44.1276 34.0356 43.9184 33.874C43.7091 33.7124 43.5521 33.4894 43.4475 33.2117C43.3428 32.9318 43.2746 32.661 43.2405 32.3947C43.2064 32.1284 43.1904 31.7916 43.1904 31.3865L43.1927 31.3819ZM46.4866 31.4115C46.4866 32.0214 46.5912 32.422 46.8028 32.6155C47.0143 32.8089 47.442 32.9068 48.088 32.9068H49.4074C50.0716 32.9068 50.5038 32.7998 50.7063 32.5859C50.9087 32.3719 51.0088 31.9441 51.0088 31.3V27.6267C51.0088 27.01 50.8792 26.6094 50.6176 26.4228C50.3583 26.2362 49.8464 26.1406 49.0821 26.1406H48.4088C47.9788 26.1406 47.6353 26.1656 47.3783 26.2157C47.1235 26.2657 46.9302 26.3568 46.7982 26.4865C46.6663 26.6162 46.5821 26.7619 46.5435 26.9235C46.5025 27.0851 46.482 27.3058 46.482 27.5858V31.4092L46.4866 31.4115Z" fill="#FEFEFE"/>
<path d="M55.79 31.2704V23.4482C55.79 22.7427 55.8674 22.1737 56.0198 21.7413C56.1722 21.3088 56.4361 20.972 56.8114 20.7285C57.1868 20.485 57.6281 20.3234 58.1376 20.2392C58.6472 20.155 59.3228 20.114 60.1644 20.114H62.0957C62.6508 20.114 63.1171 20.1277 63.4924 20.1595C63.8678 20.1891 64.234 20.2483 64.5889 20.3348C64.946 20.4213 65.2326 20.5419 65.451 20.6989C65.6694 20.856 65.8605 21.0608 66.0265 21.3134C66.1926 21.566 66.3109 21.8755 66.3814 22.242C66.4496 22.6084 66.486 23.0431 66.486 23.5483V29.5953C66.486 29.7342 66.4314 29.848 66.3245 29.9344C66.2153 30.0209 66.0584 30.0642 65.8514 30.0642H64.1635C63.7404 30.0642 63.5288 29.9071 63.5288 29.5953V23.389C63.5288 22.8246 63.4287 22.4354 63.2263 22.226C63.0238 22.0167 62.5916 21.912 61.9274 21.912H60.7149C60.0325 21.912 59.5912 22.0235 59.3887 22.2465C59.1863 22.4695 59.0862 22.8906 59.0862 23.5096V31.2135C59.0862 31.5321 59.1021 31.7779 59.134 31.9463C59.1658 32.1147 59.2363 32.2695 59.3501 32.4106C59.4615 32.5494 59.6321 32.645 59.8619 32.6951C60.0894 32.7452 60.4033 32.7702 60.7968 32.7702H65.1644C65.2645 32.7702 65.3464 32.8089 65.4078 32.8908C65.4692 32.9705 65.5011 33.0865 65.5011 33.239V34.097C65.5011 34.4088 65.2895 34.5659 64.8664 34.5659H60.2759C59.4752 34.5659 58.8087 34.5249 58.2786 34.4407C57.7463 34.3565 57.3141 34.2404 56.982 34.0925C56.6499 33.9423 56.3974 33.7261 56.2268 33.4393C56.0562 33.1525 55.9402 32.8498 55.8833 32.5267C55.8242 32.2035 55.7946 31.787 55.7946 31.2749L55.79 31.2704Z" fill="#FEFEFE"/>
<path d="M68.3363 34.097V23.191C68.3363 22.6812 68.4182 22.2374 68.5797 21.8619C68.7412 21.4863 68.9482 21.1928 69.2007 20.9765C69.4532 20.7603 69.7739 20.5896 70.1652 20.4645C70.5564 20.3393 70.9386 20.2551 71.3117 20.2164C71.6847 20.1777 72.1192 20.1572 72.6151 20.1572C73.4022 20.1572 74.0232 20.246 74.4782 20.4212C74.9331 20.5965 75.3198 20.8582 75.6383 21.2019H75.7998C76.0637 20.9014 76.4572 20.6534 76.9827 20.4554C77.5082 20.2574 78.045 20.1572 78.5887 20.1572C78.9117 20.1572 79.171 20.1572 79.3644 20.1618C79.5577 20.1641 79.8057 20.1777 80.106 20.1959C80.4062 20.2164 80.6474 20.246 80.8271 20.2847C81.0068 20.3256 81.2183 20.3803 81.4595 20.4531C81.7029 20.5259 81.8962 20.6147 82.0395 20.7171C82.1828 20.8195 82.3352 20.9538 82.4967 21.1154C82.6583 21.277 82.7811 21.4613 82.8675 21.6684C82.9517 21.8732 83.0245 22.1168 83.0836 22.3944C83.1428 22.6721 83.1724 22.9816 83.1724 23.3207V34.097C83.1724 34.4088 82.9608 34.5658 82.5377 34.5658H80.8498C80.6428 34.5658 80.4858 34.5226 80.3767 34.4361C80.2697 34.3496 80.2151 34.2358 80.2151 34.097V33.8876L80.2424 23.571C80.2424 23.2593 80.222 23.0021 80.181 22.8041C80.1401 22.6038 80.09 22.4468 80.0263 22.3307C79.9626 22.2146 79.8557 22.1304 79.7033 22.0758C79.5509 22.0234 79.4031 21.9893 79.2597 21.9757C79.1164 21.962 78.9003 21.9552 78.6137 21.9552C78.111 21.9552 77.7811 22.0712 77.6196 22.3011C77.4581 22.531 77.3785 22.9042 77.3785 23.4186V30.0437C77.3785 30.3577 77.1487 30.5148 76.6892 30.5148H74.7716C74.5464 30.5148 74.3758 30.4715 74.2598 30.385C74.1415 30.2986 74.0846 30.1848 74.0846 30.0437V23.4573C74.0846 22.8769 73.9982 22.4809 73.8276 22.2692C73.657 22.0576 73.3271 21.9529 72.8426 21.9529C72.3035 21.9529 71.9031 22.0348 71.6483 22.1964C71.3913 22.3603 71.2639 22.7062 71.2639 23.2388V34.0947C71.2639 34.4065 71.0523 34.5636 70.6292 34.5636H68.9686C68.7616 34.5636 68.6047 34.5203 68.4955 34.4338C68.3886 34.3473 68.334 34.2358 68.334 34.0947L68.3363 34.097Z" fill="#FEFEFE"/>
<path d="M85.0915 31.4V27.3103C85.0915 26.186 85.4418 25.4122 86.1447 24.9843C86.8476 24.5587 88.0714 24.3448 89.8185 24.3448C89.8185 24.0785 89.7639 23.8532 89.6569 23.6711C89.55 23.4891 89.4113 23.348 89.2429 23.2524C89.0746 23.1568 88.8858 23.0703 88.6742 22.9929C88.4627 22.9156 88.2557 22.8359 88.0509 22.754C87.8462 22.672 87.6574 22.5719 87.4891 22.4604C87.3207 22.3489 87.182 22.1827 87.0751 21.9665C86.9682 21.7503 86.9136 21.4886 86.9136 21.1836V20.7353C86.9136 20.5964 86.975 20.4804 87.1001 20.3916C87.2252 20.3028 87.3958 20.2573 87.6142 20.2573H89.5068C89.9731 20.2573 90.2074 20.4166 90.2074 20.7353V21.0744C90.2074 21.4066 90.2893 21.6706 90.4554 21.8664C90.6214 22.0621 90.8194 22.21 91.0537 22.3102C91.2857 22.4103 91.5177 22.5241 91.7497 22.6493C91.9818 22.7744 92.1819 22.9838 92.348 23.2729C92.5141 23.5619 92.596 23.9397 92.596 24.404C93.1783 24.4245 93.6833 24.4973 94.111 24.6293C94.5386 24.759 94.8753 24.9161 95.1164 25.0981C95.3575 25.2802 95.5509 25.5078 95.6919 25.7763C95.8352 26.0449 95.9262 26.2998 95.9649 26.5388C96.0036 26.7777 96.024 27.0486 96.024 27.3467V31.3978C96.024 31.8962 96.0058 32.3081 95.9672 32.6313C95.9285 32.9545 95.8443 33.2458 95.7101 33.5098C95.5782 33.7715 95.4099 33.9741 95.2119 34.1129C95.0118 34.2517 94.7297 34.3701 94.3657 34.4679C93.9995 34.5635 93.5923 34.6272 93.1419 34.6568C92.6915 34.6864 92.1137 34.7023 91.4108 34.7023H89.7593C89.1337 34.7023 88.6174 34.691 88.2147 34.6682C87.8121 34.6454 87.4163 34.5931 87.0318 34.5134C86.6474 34.4338 86.3471 34.32 86.1356 34.1743C85.9218 34.0287 85.7284 33.833 85.551 33.5849C85.3758 33.3391 85.2552 33.0387 85.187 32.6814C85.121 32.3263 85.0869 31.8985 85.0869 31.4H85.0915ZM88.3853 31.4205C88.4308 32.06 88.5605 32.4674 88.7743 32.6427C88.9882 32.8179 89.4727 32.9067 90.2234 32.9067H90.8012C91.6337 32.9067 92.1637 32.8134 92.3912 32.6267C92.6187 32.4401 92.7324 32.0009 92.7324 31.309V27.6175C92.7324 27.2921 92.7165 27.0463 92.6847 26.8847C92.6528 26.7208 92.5687 26.5774 92.4299 26.45C92.2911 26.3248 92.0955 26.2406 91.8453 26.1996C91.5951 26.1587 91.2379 26.1405 90.7716 26.1405H90.303C89.4704 26.1405 88.9427 26.2247 88.7197 26.3954C88.4968 26.5661 88.3853 26.9234 88.3853 27.4673V31.4182V31.4205Z" fill="#FEFEFE"/>
<path d="M97.3669 32.0487V29.3153C97.3669 29.1765 97.4214 29.0627 97.5284 28.9762C97.6353 28.8897 97.7945 28.8465 98.0015 28.8465H99.6212C100.053 28.8465 100.269 29.0013 100.269 29.3085V31.4433C100.269 32.0464 100.356 32.4424 100.527 32.629C100.697 32.8156 101.125 32.9089 101.809 32.9089H102.808C103.42 32.9089 103.836 32.8202 104.057 32.6404C104.278 32.4629 104.387 32.0987 104.387 31.548L104.414 28.4209C104.414 27.9384 104.296 27.4673 104.064 27.0099C103.829 26.5524 103.541 26.1564 103.199 25.8173C102.858 25.4805 102.485 25.1232 102.085 24.7499C101.684 24.3767 101.314 24.0239 100.97 23.6916C100.629 23.3616 100.342 22.977 100.113 22.54C99.8828 22.1031 99.769 21.657 99.769 21.1995V20.733C99.769 20.5942 99.8259 20.4804 99.9374 20.3916C100.049 20.3028 100.206 20.2573 100.404 20.2573H102.037C102.46 20.2573 102.672 20.4166 102.672 20.733V21.1791C102.672 21.5819 102.831 22.0075 103.152 22.4558C103.47 22.9019 103.859 23.3389 104.312 23.7622C104.767 24.1855 105.222 24.627 105.677 25.0867C106.132 25.5465 106.518 26.0699 106.837 26.6571C107.155 27.2443 107.317 27.8406 107.317 28.4459L107.289 31.4956C107.28 31.9212 107.258 32.2763 107.221 32.5607C107.185 32.8429 107.107 33.116 106.991 33.3755C106.875 33.6349 106.716 33.8398 106.518 33.99C106.32 34.1402 106.057 34.2722 105.729 34.3905C105.401 34.5089 105.006 34.5885 104.548 34.6363C104.089 34.6819 103.536 34.7069 102.888 34.7069H101.753C100.961 34.7069 100.317 34.675 99.8213 34.6113C99.3254 34.5476 98.8796 34.4224 98.4838 34.2381C98.088 34.0514 97.8013 33.7829 97.6262 33.4301C97.451 33.0774 97.3623 32.6199 97.3623 32.0532L97.3669 32.0487Z" fill="#FEFEFE"/>
<path d="M109.382 31.2704V23.4482C109.382 22.7427 109.459 22.1737 109.612 21.7413C109.764 21.3088 110.028 20.972 110.403 20.7285C110.779 20.485 111.22 20.3234 111.729 20.2392C112.239 20.155 112.915 20.114 113.756 20.114H115.688C116.243 20.114 116.709 20.1277 117.084 20.1595C117.46 20.1891 117.826 20.2483 118.181 20.3348C118.538 20.4213 118.824 20.5419 119.043 20.6989C119.261 20.856 119.452 21.0608 119.618 21.3134C119.784 21.566 119.903 21.8755 119.973 22.242C120.044 22.6084 120.078 23.0431 120.078 23.5483V29.5953C120.078 29.7342 120.023 29.848 119.916 29.9344C119.809 30.0209 119.65 30.0642 119.443 30.0642H117.755C117.332 30.0642 117.121 29.9071 117.121 29.5953V23.389C117.121 22.8246 117.021 22.4354 116.818 22.226C116.616 22.0167 116.183 21.912 115.519 21.912H114.307C113.624 21.912 113.183 22.0235 112.981 22.2465C112.778 22.4695 112.678 22.8906 112.678 23.5096V31.2135C112.678 31.5321 112.694 31.7779 112.726 31.9463C112.758 32.1147 112.828 32.2695 112.942 32.4106C113.053 32.5494 113.224 32.645 113.454 32.6951C113.683 32.7452 113.995 32.7702 114.389 32.7702H118.756C118.856 32.7702 118.938 32.8089 119 32.8908C119.061 32.9705 119.093 33.0865 119.093 33.239V34.097C119.093 34.4088 118.881 34.5659 118.458 34.5659H113.868C113.067 34.5659 112.4 34.5249 111.87 34.4407C111.338 34.3565 110.906 34.2404 110.574 34.0925C110.242 33.9423 109.989 33.7261 109.819 33.4393C109.648 33.1525 109.532 32.8498 109.475 32.5267C109.416 32.2035 109.386 31.787 109.386 31.2749L109.382 31.2704Z" fill="#FEFEFE"/>
<path d="M121.928 31.3818V20.7353C121.928 20.4166 122.162 20.2573 122.628 20.2573H124.521C124.739 20.2573 124.91 20.3028 125.035 20.3916C125.16 20.4826 125.222 20.5964 125.222 20.7353V31.3113C125.222 31.9303 125.322 32.3514 125.524 32.5744C125.727 32.7974 126.168 32.9089 126.85 32.9089H127.792C128.456 32.9089 128.886 32.8065 129.084 32.5994C129.282 32.3923 129.38 32.0077 129.38 31.441V25.0253C129.38 24.7067 129.591 24.5474 130.015 24.5474H131.702C131.9 24.5474 132.055 24.5929 132.169 24.6816C132.283 24.7727 132.337 24.8865 132.337 25.0253V31.2703C132.337 31.7756 132.303 32.2125 132.232 32.5767C132.162 32.9431 132.044 33.2526 131.878 33.5052C131.712 33.7579 131.52 33.9627 131.309 34.1197C131.095 34.2768 130.811 34.3974 130.454 34.4839C130.096 34.5703 129.73 34.6295 129.355 34.6591C128.98 34.6887 128.513 34.7046 127.958 34.7046H126.304C125.46 34.7046 124.785 34.6637 124.275 34.5794C123.766 34.4952 123.322 34.3359 122.949 34.0947C122.574 33.8557 122.31 33.5166 122.157 33.0819C122.005 32.6472 121.928 32.0783 121.928 31.3796V31.3818Z" fill="#FEFEFE"/>
<path d="M134.011 29.3155C134.011 29.1767 134.065 29.0629 134.172 28.9764C134.279 28.8899 134.438 28.8467 134.645 28.8467H136.361C136.784 28.8467 136.995 29.0037 136.995 29.3155V31.291C136.995 31.9419 137.093 32.3743 137.293 32.5883C137.491 32.8022 137.91 32.9069 138.549 32.9069H140.089C140.664 32.9069 141.049 32.7999 141.245 32.5883C141.438 32.3743 141.536 31.9874 141.536 31.4207V23.289C141.536 22.7496 141.42 22.3923 141.185 22.2171C140.951 22.0418 140.43 21.9531 139.618 21.9531H138.874C138.299 21.9531 137.889 22.0577 137.646 22.2671C137.402 22.4765 137.268 22.8247 137.241 23.3095V23.8989C137.241 24.2107 137.029 24.3678 136.606 24.3678H134.946C134.739 24.3678 134.582 24.3245 134.473 24.2403C134.366 24.1538 134.311 24.0423 134.311 23.9035V23.4392C134.311 22.7542 134.402 22.1943 134.582 21.7596C134.761 21.3249 135.055 20.9904 135.462 20.7559C135.869 20.5215 136.336 20.3645 136.863 20.2826C137.391 20.2006 138.067 20.1597 138.89 20.1597H139.916C140.962 20.1597 141.802 20.2097 142.434 20.3099C143.069 20.41 143.565 20.5898 143.926 20.8515C144.288 21.1133 144.527 21.4251 144.648 21.7869C144.768 22.1488 144.827 22.6313 144.827 23.2344V31.5937C144.827 32.2036 144.741 32.7134 144.57 33.1208C144.4 33.5282 144.129 33.8491 143.758 34.0812C143.387 34.3134 142.953 34.475 142.455 34.5683C141.957 34.6616 141.336 34.7071 140.596 34.7071H138.669C138.021 34.7071 137.491 34.6934 137.075 34.6661C136.659 34.6388 136.26 34.5842 135.883 34.5023C135.503 34.4181 135.21 34.3065 135.003 34.1632C134.796 34.0198 134.611 33.8263 134.454 33.5805C134.297 33.3347 134.188 33.0412 134.129 32.6975C134.07 32.3561 134.038 31.9374 134.038 31.4458L134.011 29.3201V29.3155Z" fill="#FEFEFE"/>
<path d="M146.636 31.2704V23.4482C146.636 22.7427 146.713 22.1737 146.865 21.7413C147.018 21.3088 147.282 20.972 147.657 20.7285C148.032 20.485 148.474 20.3234 148.983 20.2392C149.493 20.155 150.168 20.114 151.01 20.114H152.941C153.496 20.114 153.963 20.1277 154.338 20.1595C154.713 20.1891 155.08 20.2483 155.435 20.3348C155.792 20.4213 156.078 20.5419 156.297 20.6989C156.515 20.856 156.706 21.0608 156.872 21.3134C157.038 21.566 157.157 21.8755 157.227 22.242C157.298 22.6084 157.332 23.0431 157.332 23.5483V29.5953C157.332 29.7342 157.277 29.848 157.17 29.9344C157.063 30.0209 156.904 30.0642 156.697 30.0642H155.009C154.586 30.0642 154.375 29.9071 154.375 29.5953V23.389C154.375 22.8246 154.274 22.4354 154.072 22.226C153.87 22.0167 153.437 21.912 152.773 21.912H151.561C150.878 21.912 150.437 22.0235 150.234 22.2465C150.032 22.4695 149.932 22.8906 149.932 23.5096V31.2135C149.932 31.5321 149.948 31.7779 149.98 31.9463C150.012 32.1147 150.082 32.2695 150.196 32.4106C150.307 32.5494 150.478 32.645 150.708 32.6951C150.937 32.7452 151.249 32.7702 151.643 32.7702H156.01C156.11 32.7702 156.192 32.8089 156.254 32.8908C156.315 32.9705 156.347 33.0865 156.347 33.239V34.097C156.347 34.4088 156.135 34.5659 155.712 34.5659H151.122C150.321 34.5659 149.654 34.5249 149.122 34.4407C148.59 34.3565 148.16 34.2404 147.825 34.0925C147.493 33.9423 147.241 33.7261 147.07 33.4393C146.9 33.1525 146.784 32.8498 146.727 32.5267C146.668 32.2035 146.638 31.787 146.638 31.2749L146.636 31.2704Z" fill="#FEFEFE"/>
<path d="M159.209 34.0925V23.2616C159.209 22.0986 159.5 21.2747 160.08 20.7877C160.66 20.3006 161.743 20.0571 163.329 20.0571H165.151C165.879 20.0571 166.502 20.1163 167.014 20.2324C167.528 20.3484 167.928 20.4987 168.215 20.6784C168.504 20.8582 168.729 21.1018 168.89 21.409C169.052 21.7162 169.157 22.0144 169.202 22.3057C169.248 22.597 169.27 22.9543 169.27 23.3822V34.0925C169.27 34.4066 169.059 34.5636 168.636 34.5636H167.016C166.809 34.5636 166.65 34.5203 166.536 34.4339C166.422 34.3474 166.368 34.2336 166.368 34.0948V23.3094C166.368 22.7586 166.254 22.3762 166.031 22.1669C165.806 21.9575 165.355 21.8528 164.68 21.8528H163.802C163.099 21.8528 162.642 21.9575 162.432 22.1669C162.221 22.3762 162.114 22.7973 162.114 23.43V34.097C162.114 34.4088 161.902 34.5659 161.479 34.5659H159.846C159.639 34.5659 159.482 34.5226 159.373 34.4361C159.266 34.3497 159.211 34.2359 159.211 34.0948L159.209 34.0925Z" fill="#FEFEFE"/>
</svg>
