<svg width="46" height="37" viewBox="0 0 46 37" fill="none" xmlns="http://www.w3.org/2000/svg">
<path d="M2.80495 31.8057C6.71595 36.4511 13.9305 38.2225 20.1798 35.8238V32.878C14.2661 33.5992 8.77131 31.8057 6.16953 28.2243C2.4832 23.1616 6.08909 16.5404 7.26793 14.3793C11.4313 6.73561 20.9037 1.85257 21.1506 1.66466C18.4323 2.41356 14.3188 3.90583 10.247 6.98156C4.59403 11.2539 2.00611 16.3165 0.885507 18.9971C0.763461 19.2983 -1.96314 26.1489 2.80772 31.803L2.80495 31.8057Z" fill="url(#paint0_linear_0_2082)"/>
<path d="M42.5555 5.086C38.6445 0.440622 31.43 -1.33076 25.1807 1.06793V4.01378C31.0944 3.29252 36.5892 5.086 39.191 8.66745C42.8773 13.7301 39.2714 20.3514 38.0926 22.5124C33.9292 30.1561 24.4568 35.0392 24.2099 35.2271C26.9282 34.4782 31.0417 32.9859 35.1135 29.9102C40.7665 25.6379 43.3544 20.5752 44.475 17.8947C44.597 17.5934 47.3236 10.7428 42.5528 5.08877L42.5555 5.086Z" fill="url(#paint1_linear_0_2082)"/>
<path d="M26.6031 27.8764C31.7401 25.7541 34.1866 19.8624 32.0563 14.7417C29.9261 9.62098 24.0124 7.18637 18.8754 9.31147C13.7384 11.4338 11.2919 17.3255 13.425 22.4434C15.5552 27.5614 21.4689 29.9987 26.6059 27.8764H26.6031ZM19.0141 9.65414C23.9625 7.60918 29.6598 9.95536 31.7124 14.8854C33.7649 19.8154 31.41 25.4915 26.4616 27.5365C21.5132 29.5815 15.8159 27.2353 13.7634 22.3053C11.7108 17.3753 14.0657 11.6991 19.0141 9.65414Z" fill="#125EBE"/>
<path d="M26.6031 27.8764C31.7401 25.7541 34.1866 19.8624 32.0563 14.7417C29.9261 9.62098 24.0124 7.18637 18.8754 9.31147C13.7384 11.4338 11.2919 17.3255 13.425 22.4434C15.5552 27.5614 21.4689 29.9987 26.6059 27.8764H26.6031ZM19.0141 9.65414C23.9625 7.60918 29.6598 9.95536 31.7124 14.8854C33.7649 19.8154 31.41 25.4915 26.4616 27.5365C21.5132 29.5815 15.8159 27.2353 13.7634 22.3053C11.7108 17.3753 14.0657 11.6991 19.0141 9.65414Z" fill="#125EBE"/>
<path d="M25.1029 10.5039C25.6188 10.3105 25.9489 10.0535 25.9433 9.73569C25.9267 9.0089 24.1598 8.66347 22.4206 8.69939C20.6815 8.73532 18.9285 9.15536 18.9451 9.88215C18.9534 10.2276 19.3307 10.5012 20.0685 10.6918C20.7148 10.8577 21.5663 10.9378 22.4678 10.9185C23.4497 10.8991 24.4344 10.7554 25.1056 10.5039H25.1029ZM19.9048 9.46487C20.4235 9.27143 21.2751 9.09457 22.4262 9.0697C24.451 9.02824 25.5661 9.49251 25.5716 9.74398C25.5772 9.99546 24.4843 10.5067 22.4595 10.5509C21.5913 10.5703 20.7758 10.4929 20.16 10.3354C19.4943 10.164 19.3168 9.96229 19.314 9.87663C19.314 9.76885 19.5137 9.61133 19.9048 9.46487Z" fill="#125EBE"/>
<path d="M22.5522 14.4446C18.0338 14.4446 15.1324 12.2946 15.0908 12.2615L15.26 12.0431C15.3238 12.0901 21.7062 16.8101 30.2994 12.0321L30.4353 12.2725C27.5062 13.9002 24.8239 14.4446 22.555 14.4446H22.5522Z" fill="#125EBE"/>
<path d="M22.8405 18.3431C17.3595 18.3431 13.235 15.751 13.1739 15.7095L13.3265 15.4774C13.4208 15.5382 22.7573 21.3995 31.9689 15.2757L32.1243 15.5051C28.9178 17.6384 25.6947 18.3404 22.8405 18.3404V18.3431Z" fill="#125EBE"/>
<path d="M22.4601 22.2275C16.6269 22.2275 12.874 19.8095 12.8186 19.7708L12.9739 19.5414C13.0571 19.5967 21.3728 24.944 32.5067 19.5331L32.6287 19.7818C28.8537 21.6168 25.3948 22.2275 22.4629 22.2275H22.4601Z" fill="#125EBE"/>
<path d="M22.6739 25.8359C22.477 25.8359 22.2773 25.8331 22.0748 25.8249C18.4245 25.6894 15.6091 24.374 13.8894 23.2935L14.0364 23.0586C15.7284 24.1198 18.4966 25.4159 22.0831 25.5485C26.4213 25.7143 29.7442 24.059 31.3391 23.0586L31.4861 23.2935C29.9384 24.2635 26.7902 25.8359 22.6711 25.8359H22.6739Z" fill="#125EBE"/>
<path d="M19.839 10.4332C19.7752 10.4691 13.6951 14.0285 16.9515 26.5193C17.1068 26.6133 17.2316 26.7349 17.3287 26.8786C13.8781 14.2606 19.9139 10.7096 19.9749 10.6764L19.839 10.436V10.4332Z" fill="#125EBE"/>
<path d="M20.6772 28.2938C20.2195 25.0164 20.1141 21.6864 20.3693 18.3979C20.5746 15.7532 21.0128 13.1058 21.6758 10.5331L21.9448 10.6022C21.2874 13.1611 20.8492 15.7919 20.6467 18.42C20.3943 21.6892 20.4969 24.9998 20.9518 28.2579L20.6772 28.2966V28.2938Z" fill="#125EBE"/>
<path d="M25.3919 28.1222L25.1173 28.0836C25.4113 26.0137 25.5278 23.908 25.4668 21.8243C25.3558 18.0218 24.6513 14.2469 23.3781 10.6102L23.6389 10.519C24.9231 14.1833 25.6304 17.9831 25.7442 21.816C25.8052 23.9135 25.6859 26.0358 25.3919 28.1222Z" fill="#125EBE"/>
<path d="M29.1089 26.2093L28.8454 26.1209C29.5167 24.134 30.7954 18.9829 28.1492 14.086C27.3725 12.6463 26.3241 11.3585 25.037 10.2614L25.2173 10.0514C26.5321 11.1706 27.6 12.4832 28.3933 13.9534C31.0894 18.947 29.7913 24.1865 29.1089 26.2066V26.2093Z" fill="#125EBE"/>
<defs>
<linearGradient id="paint0_linear_0_2082" x1="0.00277376" y1="19.2747" x2="21.1527" y2="19.2747" gradientUnits="userSpaceOnUse">
<stop offset="0.39" stop-color="#EF7801"/>
<stop offset="0.68" stop-color="#F18D28"/>
<stop offset="0.88" stop-color="#E59A48"/>
</linearGradient>
<linearGradient id="paint1_linear_0_2082" x1="24.205" y1="17.6171" x2="45.3577" y2="17.6171" gradientUnits="userSpaceOnUse">
<stop offset="0.18" stop-color="#2A8FEA"/>
<stop offset="0.23" stop-color="#2684E5"/>
<stop offset="0.34" stop-color="#1F71DD"/>
<stop offset="0.41" stop-color="#1D6ADA"/>
<stop offset="0.8" stop-color="#0851A4"/>
<stop offset="1" stop-color="#00478D"/>
</linearGradient>
</defs>
</svg>
