<svg width="24" height="25" viewBox="0 0 24 25" fill="none" xmlns="http://www.w3.org/2000/svg">
<g id="Message">
<path id="Vector" d="M4 20.0879C3.45 20.0879 2.97917 19.8921 2.5875 19.5004C2.19583 19.1087 2 18.6379 2 18.0879V6.08789C2 5.53789 2.19583 5.06706 2.5875 4.67539C2.97917 4.28372 3.45 4.08789 4 4.08789H20C20.55 4.08789 21.0208 4.28372 21.4125 4.67539C21.8042 5.06706 22 5.53789 22 6.08789V18.0879C22 18.6379 21.8042 19.1087 21.4125 19.5004C21.0208 19.8921 20.55 20.0879 20 20.0879H4ZM12 13.0879L4 8.08789V18.0879H20V8.08789L12 13.0879ZM12 11.0879L20 6.08789H4L12 11.0879ZM4 8.08789V6.08789V18.0879V8.08789Z" fill="#1D6ADA"/>
</g>
</svg>
