<svg width="90" height="82" viewBox="0 0 90 82" fill="none" xmlns="http://www.w3.org/2000/svg">
<circle cx="35.9814" cy="35" r="35" fill="#EBF0F6"/>
<path d="M57.0186 76.6666C55.5519 76.6666 54.2963 76.1444 53.2519 75.0999C52.2074 74.0555 51.6852 72.7999 51.6852 71.3332H62.3519C62.3519 72.7999 61.8297 74.0555 60.7852 75.0999C59.7408 76.1444 58.4852 76.6666 57.0186 76.6666ZM46.3519 68.6666V63.3332H67.6852V68.6666H46.3519ZM47.0186 60.6666C43.9519 58.8444 41.5186 56.3999 39.7186 53.3333C37.9186 50.2666 37.0186 46.9333 37.0186 43.3333C37.0186 37.7777 38.963 33.0555 42.8519 29.1666C46.7408 25.2777 51.463 23.3333 57.0186 23.3333C62.5741 23.3333 67.2963 25.2777 71.1852 29.1666C75.0741 33.0555 77.0186 37.7777 77.0186 43.3333C77.0186 46.9333 76.1186 50.2666 74.3186 53.3333C72.5186 56.3999 70.0852 58.8444 67.0186 60.6666H47.0186ZM48.6186 55.3333H65.4186C67.4186 53.911 68.963 52.1555 70.0519 50.0666C71.1408 47.9777 71.6852 45.7332 71.6852 43.3333C71.6852 39.2444 70.263 35.7777 67.4186 32.9333C64.5741 30.0888 61.1074 28.6666 57.0186 28.6666C52.9297 28.6666 49.463 30.0888 46.6186 32.9333C43.7741 35.7777 42.3519 39.2444 42.3519 43.3333C42.3519 45.7332 42.8963 47.9777 43.9852 50.0666C45.0741 52.1555 46.6186 53.911 48.6186 55.3333Z" fill="#1D6ADA"/>
</svg>
