<svg width="24" height="25" viewBox="0 0 24 25" fill="none" xmlns="http://www.w3.org/2000/svg">
<rect y="0.525635" width="24" height="24" rx="12" fill="#FEFEFE"/>
<g clip-path="url(#clip0_70_515)">
<path d="M12 5.96626C14.1375 5.96626 14.3906 5.97563 15.2313 6.01313C16.0125 6.04751 16.4344 6.17876 16.7156 6.28813C17.0875 6.43188 17.3563 6.60688 17.6344 6.88501C17.9156 7.16626 18.0875 7.43189 18.2313 7.80376C18.3406 8.08501 18.4719 8.51001 18.5063 9.28813C18.5438 10.1319 18.5531 10.385 18.5531 12.5194C18.5531 14.6569 18.5438 14.91 18.5063 15.7506C18.4719 16.5319 18.3406 16.9538 18.2313 17.235C18.0875 17.6069 17.9125 17.8756 17.6344 18.1538C17.3531 18.435 17.0875 18.6069 16.7156 18.7506C16.4344 18.86 16.0094 18.9913 15.2313 19.0256C14.3875 19.0631 14.1344 19.0725 12 19.0725C9.8625 19.0725 9.60938 19.0631 8.76875 19.0256C7.9875 18.9913 7.56563 18.86 7.28438 18.7506C6.9125 18.6069 6.64375 18.4319 6.36563 18.1538C6.08438 17.8725 5.9125 17.6069 5.76875 17.235C5.65938 16.9538 5.52813 16.5288 5.49375 15.7506C5.45625 14.9069 5.44688 14.6538 5.44688 12.5194C5.44688 10.3819 5.45625 10.1288 5.49375 9.28813C5.52813 8.50688 5.65938 8.08501 5.76875 7.80376C5.9125 7.43189 6.0875 7.16313 6.36563 6.88501C6.64688 6.60376 6.9125 6.43188 7.28438 6.28813C7.56563 6.17876 7.99063 6.04751 8.76875 6.01313C9.60938 5.97563 9.8625 5.96626 12 5.96626ZM12 4.52563C9.82813 4.52563 9.55625 4.53501 8.70313 4.57251C7.85313 4.61001 7.26875 4.74751 6.7625 4.94438C6.23438 5.15063 5.7875 5.42251 5.34375 5.86938C4.89688 6.31313 4.625 6.76001 4.41875 7.28501C4.22187 7.79439 4.08438 8.37563 4.04688 9.22563C4.00938 10.0819 4 10.3538 4 12.5256C4 14.6975 4.00938 14.9694 4.04688 15.8225C4.08438 16.6725 4.22187 17.2569 4.41875 17.7631C4.625 18.2913 4.89688 18.7381 5.34375 19.1819C5.7875 19.6256 6.23438 19.9006 6.75938 20.1038C7.26875 20.3006 7.85 20.4381 8.7 20.4756C9.55313 20.5131 9.825 20.5225 11.9969 20.5225C14.1688 20.5225 14.4406 20.5131 15.2938 20.4756C16.1438 20.4381 16.7281 20.3006 17.2344 20.1038C17.7594 19.9006 18.2063 19.6256 18.65 19.1819C19.0938 18.7381 19.3688 18.2913 19.5719 17.7663C19.7688 17.2569 19.9063 16.6756 19.9438 15.8256C19.9813 14.9725 19.9906 14.7006 19.9906 12.5288C19.9906 10.3569 19.9813 10.085 19.9438 9.23188C19.9063 8.38189 19.7688 7.79751 19.5719 7.29126C19.375 6.76001 19.1031 6.31313 18.6563 5.86938C18.2125 5.42563 17.7656 5.15063 17.2406 4.94751C16.7313 4.75063 16.15 4.61313 15.3 4.57563C14.4438 4.53501 14.1719 4.52563 12 4.52563Z" fill="#1D6ADA"/>
<path d="M12 8.41626C9.73125 8.41626 7.89062 10.2569 7.89062 12.5256C7.89062 14.7944 9.73125 16.635 12 16.635C14.2688 16.635 16.1094 14.7944 16.1094 12.5256C16.1094 10.2569 14.2688 8.41626 12 8.41626ZM12 15.1913C10.5281 15.1913 9.33437 13.9975 9.33437 12.5256C9.33437 11.0538 10.5281 9.86001 12 9.86001C13.4719 9.86001 14.6656 11.0538 14.6656 12.5256C14.6656 13.9975 13.4719 15.1913 12 15.1913Z" fill="#1D6ADA"/>
<path d="M17.2312 8.25381C17.2312 8.78506 16.8 9.21319 16.2719 9.21319C15.7406 9.21319 15.3125 8.78194 15.3125 8.25381C15.3125 7.72256 15.7438 7.29443 16.2719 7.29443C16.8 7.29443 17.2312 7.72568 17.2312 8.25381Z" fill="#1D6ADA"/>
</g>
<defs>
<clipPath id="clip0_70_515">
<rect width="16" height="16" fill="white" transform="translate(4 4.52563)"/>
</clipPath>
</defs>
</svg>
