<svg width="24" height="25" viewBox="0 0 24 25" fill="none" xmlns="http://www.w3.org/2000/svg">
<rect y="0.525635" width="24" height="24" rx="12" fill="#FEFEFE"/>
<g clip-path="url(#clip0_70_512)">
<rect x="4" y="4.52563" width="16" height="16" rx="8" fill="#1D6ADA"/>
<path d="M18.8156 4.52563H5.18125C4.52812 4.52563 4 5.04126 4 5.67876V19.3694C4 20.0069 4.52812 20.5256 5.18125 20.5256H18.8156C19.4688 20.5256 20 20.0069 20 19.3725V5.67876C20 5.04126 19.4688 4.52563 18.8156 4.52563ZM8.74687 18.16H6.37188V10.5225H8.74687V18.16ZM7.55938 9.48188C6.79688 9.48188 6.18125 8.86626 6.18125 8.10688C6.18125 7.34751 6.79688 6.73188 7.55938 6.73188C8.31875 6.73188 8.93437 7.34751 8.93437 8.10688C8.93437 8.86313 8.31875 9.48188 7.55938 9.48188ZM17.6344 18.16H15.2625V14.4475C15.2625 13.5631 15.2469 12.4225 14.0281 12.4225C12.7937 12.4225 12.6062 13.3881 12.6062 14.385V18.16H10.2375V10.5225H12.5125V11.5663H12.5437C12.8594 10.9663 13.6344 10.3319 14.7875 10.3319C17.1906 10.3319 17.6344 11.9131 17.6344 13.9694V18.16Z" fill="white"/>
</g>
<defs>
<clipPath id="clip0_70_512">
<rect x="4" y="4.52563" width="16" height="16" rx="8" fill="white"/>
</clipPath>
</defs>
</svg>
