<svg width="296" height="37" viewBox="0 0 296 37" fill="none" xmlns="http://www.w3.org/2000/svg">
<path d="M2.80495 31.8057C6.71595 36.4511 13.9305 38.2225 20.1798 35.8238V32.878C14.2661 33.5992 8.77131 31.8057 6.16953 28.2243C2.4832 23.1616 6.08909 16.5404 7.26793 14.3793C11.4313 6.73561 20.9037 1.85257 21.1506 1.66466C18.4323 2.41356 14.3188 3.90583 10.247 6.98156C4.59403 11.2539 2.00611 16.3165 0.885507 18.9971C0.763461 19.2983 -1.96314 26.1489 2.80772 31.803L2.80495 31.8057Z" fill="url(#paint0_linear_56_6155)"/>
<path d="M42.5556 5.086C38.6446 0.440622 31.4301 -1.33076 25.1808 1.06793V4.01378C31.0944 3.29252 36.5893 5.086 39.191 8.66745C42.8774 13.7301 39.2715 20.3514 38.0926 22.5124C33.9292 30.1561 24.4568 35.0392 24.21 35.2271C26.9282 34.4782 31.0417 32.9859 35.1136 29.9102C40.7665 25.6379 43.3545 20.5752 44.4751 17.8947C44.5971 17.5934 47.3237 10.7428 42.5528 5.08877L42.5556 5.086Z" fill="url(#paint1_linear_56_6155)"/>
<path d="M26.6033 27.8764C31.7403 25.7541 34.1868 19.8624 32.0565 14.7417C29.9263 9.62098 24.0126 7.18637 18.8756 9.31148C13.7386 11.4338 11.2922 17.3255 13.4252 22.4434C15.5554 27.5614 21.4691 29.9988 26.6061 27.8764H26.6033ZM19.0143 9.65415C23.9627 7.60918 29.66 9.95536 31.7126 14.8854C33.7652 19.8154 31.4103 25.4915 26.4619 27.5365C21.5135 29.5815 15.8162 27.2353 13.7636 22.3053C11.711 17.3753 14.0659 11.6991 19.0143 9.65415Z" fill="#125EBE"/>
<path d="M26.6033 27.8764C31.7403 25.7541 34.1868 19.8624 32.0565 14.7417C29.9263 9.62098 24.0126 7.18637 18.8756 9.31148C13.7386 11.4338 11.2922 17.3255 13.4252 22.4434C15.5554 27.5614 21.4691 29.9988 26.6061 27.8764H26.6033ZM19.0143 9.65415C23.9627 7.60918 29.66 9.95536 31.7126 14.8854C33.7652 19.8154 31.4103 25.4915 26.4619 27.5365C21.5135 29.5815 15.8162 27.2353 13.7636 22.3053C11.711 17.3753 14.0659 11.6991 19.0143 9.65415Z" fill="#125EBE"/>
<path d="M25.1032 10.5039C25.6191 10.3105 25.9492 10.0535 25.9436 9.73571C25.927 9.00892 24.1601 8.66348 22.421 8.69941C20.6818 8.73533 18.9288 9.15538 18.9454 9.88217C18.9538 10.2276 19.331 10.5012 20.0688 10.6919C20.7151 10.8577 21.5666 10.9378 22.4681 10.9185C23.45 10.8991 24.4347 10.7554 25.106 10.5039H25.1032ZM19.9051 9.46489C20.4238 9.27144 21.2754 9.09458 22.4265 9.06971C24.4513 9.02826 25.5664 9.49252 25.5719 9.744C25.5775 9.99547 24.4846 10.5067 22.4598 10.5509C21.5916 10.5703 20.7761 10.4929 20.1603 10.3354C19.4946 10.164 19.3171 9.96231 19.3143 9.87664C19.3143 9.76887 19.514 9.61135 19.9051 9.46489Z" fill="#125EBE"/>
<path d="M22.5522 14.4446C18.0338 14.4446 15.1324 12.2946 15.0908 12.2615L15.26 12.0431C15.3238 12.0901 21.7062 16.8101 30.2994 12.0321L30.4353 12.2725C27.5062 13.9002 24.8239 14.4446 22.555 14.4446H22.5522Z" fill="#125EBE"/>
<path d="M22.8404 18.3431C17.3594 18.3431 13.2349 15.751 13.1738 15.7096L13.3264 15.4774C13.4207 15.5382 22.7572 21.3995 31.9688 15.2757L32.1242 15.5051C28.9177 17.6385 25.6946 18.3404 22.8404 18.3404V18.3431Z" fill="#125EBE"/>
<path d="M22.46 22.2275C16.6267 22.2275 12.8738 19.8095 12.8184 19.7708L12.9737 19.5414C13.0569 19.5967 21.3726 24.944 32.5065 19.5331L32.6286 19.7818C28.8535 21.6168 25.3946 22.2275 22.4627 22.2275H22.46Z" fill="#125EBE"/>
<path d="M22.6742 25.8359C22.4772 25.8359 22.2775 25.8332 22.075 25.8249C18.4248 25.6895 15.6094 24.374 13.8896 23.2935L14.0367 23.0586C15.7287 24.1198 18.4969 25.4159 22.0833 25.5485C26.4215 25.7143 29.7445 24.059 31.3394 23.0586L31.4864 23.2935C29.9386 24.2635 26.7904 25.8359 22.6714 25.8359H22.6742Z" fill="#125EBE"/>
<path d="M19.8392 10.4332C19.7754 10.4692 13.6953 14.0285 16.9517 26.5193C17.107 26.6133 17.2318 26.7349 17.3289 26.8786C13.8783 14.2606 19.9141 10.7096 19.9751 10.6764L19.8392 10.436V10.4332Z" fill="#125EBE"/>
<path d="M20.6771 28.2939C20.2194 25.0164 20.114 21.6864 20.3692 18.3979C20.5745 15.7533 21.0127 13.1059 21.6757 10.5331L21.9447 10.6022C21.2873 13.1611 20.8491 15.792 20.6466 18.42C20.3942 21.6892 20.4968 24.9998 20.9517 28.2579L20.6771 28.2966V28.2939Z" fill="#125EBE"/>
<path d="M25.3917 28.1223L25.1171 28.0836C25.4111 26.0137 25.5276 23.908 25.4666 21.8243C25.3556 18.0218 24.6511 14.2469 23.3779 10.6102L23.6387 10.519C24.9229 14.1833 25.6302 17.9831 25.7439 21.816C25.805 23.9135 25.6857 26.0358 25.3917 28.1223Z" fill="#125EBE"/>
<path d="M29.109 26.2094L28.8455 26.1209C29.5167 24.134 30.7954 18.9829 28.1493 14.086C27.3726 12.6463 26.3241 11.3585 25.0371 10.2614L25.2174 10.0514C26.5322 11.1706 27.6001 12.4832 28.3934 13.9534C31.0895 18.947 29.7913 24.1865 29.109 26.2066V26.2094Z" fill="#125EBE"/>
<path d="M80.3318 30.2474C78.4354 30.9075 74.7974 31.8959 70.7233 31.8959C65.6972 31.8959 61.9187 30.6586 59.1894 28.0757C56.7557 25.7959 55.3604 22.441 55.3604 18.6966C55.3604 10.8506 61.4969 4.9958 71.3975 4.9958C75.1039 4.9958 78.0027 5.74974 79.3656 6.39185L78.2082 10.36C76.5389 9.63848 74.509 9.06852 71.2316 9.06852C64.886 9.06852 60.6496 12.6687 60.6496 18.3503C60.6496 24.0319 64.6553 27.8665 71.0153 27.8665C73.1029 27.8665 74.6568 27.596 75.3996 27.2388V20.9223H70.1572V17.0228H80.3391V30.2474H80.3318Z" fill="#EF7C08"/>
<path d="M84.1826 4.9958H89.2613V27.6022H101.476V31.8959H84.1863V4.9958H84.1826Z" fill="#1D6ADA"/>
<path d="M134.139 18.2112C134.139 26.5522 127.918 31.8959 119.46 31.8959C111.001 31.8959 105.317 26.2535 105.317 18.7267C105.317 10.688 111.373 4.9958 119.858 4.9958C128.342 4.9958 134.139 10.6453 134.139 18.2077V18.2112ZM110.866 18.5881C110.866 23.7719 114.26 28.0312 119.726 28.0312C125.193 28.0312 128.59 23.9034 128.59 18.389C128.59 13.4221 125.444 8.86763 119.756 8.86763C114.069 8.86763 110.87 13.287 110.87 18.5881H110.866Z" fill="#1D6ADA"/>
<path d="M137.982 5.58106C139.533 5.27399 142.587 4.9958 145.478 4.9958C149.311 4.9958 151.474 5.47268 153.29 6.6143C154.995 7.57527 156.231 9.27685 156.231 11.6721C156.231 14.0673 154.688 16.2891 151.775 17.3223V17.4163C154.419 18.0738 157.197 20.1727 157.197 23.9661C157.197 26.3649 156.103 28.2146 154.521 29.4971C152.564 31.0939 149.372 31.8959 144.296 31.8959C141.43 31.8959 139.288 31.6936 137.982 31.5274V5.57745V5.58106ZM142.877 15.9387H145.701C149.375 15.9387 151.24 14.4069 151.24 12.2393C151.24 9.65618 149.117 8.6916 145.999 8.6916C144.335 8.6916 143.443 8.80359 142.877 8.91558V15.9351V15.9387ZM142.877 28.0087C143.585 28.1387 144.505 28.1532 145.779 28.1532C148.972 28.1532 151.991 27.1163 151.991 23.7782C151.991 20.7183 149.159 19.555 145.617 19.555H142.877V28.0087Z" fill="#1D6ADA"/>
<path d="M169.293 24.0966L166.626 31.8959H161.04L170.886 4.9958H177.801L187.94 31.8959H182.099L179.234 24.0966H169.289H169.293ZM178.27 20.2558L175.732 13.4764C175.13 11.8378 174.643 10.2285 174.181 8.77397H174.098C173.659 10.2433 173.229 11.8746 172.688 13.447L170.226 20.2558H178.266H178.27Z" fill="#1D6ADA"/>
<path d="M191.783 4.9958H196.298V27.6022H207.155V31.8959H191.786V4.9958H191.783Z" fill="#1D6ADA"/>
<path d="M231.939 30.5483C230.77 31.1705 228.101 31.8959 224.69 31.8959C216.225 31.8959 210.997 26.6084 210.997 18.7357C210.997 10.863 216.816 4.9958 225.318 4.9958C228.702 4.9958 231.094 5.72831 232.133 6.30436L231.081 10.1874C229.758 9.54731 227.79 9.01038 225.509 9.01038C219.763 9.01038 215.894 12.5556 215.894 18.5188C215.894 23.8206 219.255 27.8209 225.425 27.8209C227.526 27.8209 229.731 27.3871 231.107 26.7186L231.939 30.5483Z" fill="#EF7C08"/>
<path d="M251.997 20.0717H240.958V27.7385H253.269V31.8959H235.976V4.9958H252.654V9.15326H240.958V15.9142H251.997V20.0717Z" fill="#1D6ADA"/>
<path d="M257.111 4.9958H262.19V27.6022H274.404V31.8959H257.115V4.9958H257.111Z" fill="#1D6ADA"/>
<path d="M278.247 4.9958H283.326V27.6022H295.54V31.8959H278.251V4.9958H278.247Z" fill="#1D6ADA"/>
<defs>
<linearGradient id="paint0_linear_56_6155" x1="0.00277376" y1="19.2747" x2="21.1527" y2="19.2747" gradientUnits="userSpaceOnUse">
<stop offset="0.39" stop-color="#EF7801"/>
<stop offset="0.68" stop-color="#F18D28"/>
<stop offset="0.88" stop-color="#E59A48"/>
</linearGradient>
<linearGradient id="paint1_linear_56_6155" x1="24.2051" y1="17.6171" x2="45.3578" y2="17.6171" gradientUnits="userSpaceOnUse">
<stop offset="0.18" stop-color="#2A8FEA"/>
<stop offset="0.23" stop-color="#2684E5"/>
<stop offset="0.34" stop-color="#1F71DD"/>
<stop offset="0.41" stop-color="#1D6ADA"/>
<stop offset="0.8" stop-color="#0851A4"/>
<stop offset="1" stop-color="#00478D"/>
</linearGradient>
</defs>
</svg>
