<svg width="88" height="82" viewBox="0 0 88 82" fill="none" xmlns="http://www.w3.org/2000/svg">
<circle cx="34.9902" cy="35" r="35" fill="#EBF0F6"/>
<path d="M53.2091 59.4666L68.2758 44.3999L64.4758 40.5999L53.2091 51.8666L47.6091 46.2666L43.8091 50.0666L53.2091 59.4666ZM56.0091 76.6666C49.8313 75.111 44.7313 71.5666 40.7091 66.0332C36.6869 60.4999 34.6758 54.3555 34.6758 47.5999V31.3333L56.0091 23.3333L77.3424 31.3333V47.5999C77.3424 54.3555 75.3313 60.4999 71.3091 66.0332C67.2869 71.5666 62.1869 75.111 56.0091 76.6666ZM56.0091 71.0666C60.6313 69.5999 64.4536 66.6666 67.4758 62.2666C70.498 57.8666 72.0091 52.9777 72.0091 47.5999V34.9999L56.0091 28.9999L40.0091 34.9999V47.5999C40.0091 52.9777 41.5202 57.8666 44.5424 62.2666C47.5647 66.6666 51.3869 69.5999 56.0091 71.0666Z" fill="#1D6ADA"/>
</svg>
