<svg width="24" height="25" viewBox="0 0 24 25" fill="none" xmlns="http://www.w3.org/2000/svg">
<rect y="0.525635" width="24" height="24" rx="12" fill="#FEFEFE"/>
<path d="M10.0794 4.75918L10.259 5.48651C9.55128 5.66141 8.87394 5.94184 8.24973 6.31838L7.86561 5.67516C8.55269 5.25907 9.2992 4.95019 10.0794 4.75918ZM13.9206 4.75918L13.741 5.48651C14.4487 5.66141 15.1261 5.94184 15.7503 6.31838L16.1389 5.67516C15.45 5.25943 14.7021 4.9506 13.9206 4.75918ZM5.14951 8.38898C4.73381 9.07707 4.42497 9.82427 4.23354 10.605L4.96086 10.7846C5.13577 10.0769 5.4162 9.39958 5.79274 8.77537L5.14951 8.38898ZM4.74948 12.5256C4.74943 12.1619 4.77678 11.7988 4.83131 11.4392L4.09035 11.3256C3.96988 12.1203 3.96988 12.9287 4.09035 13.7234L4.83131 13.6121C4.77687 13.2525 4.74951 12.8893 4.74948 12.5256ZM16.1344 19.3738L15.7503 18.7329C15.127 19.1098 14.4504 19.3902 13.7433 19.5648L13.9229 20.2921C14.7021 20.0992 15.4477 19.7897 16.1344 19.3738ZM19.2505 12.5256C19.2505 12.8893 19.2231 13.2525 19.1687 13.6121L19.9097 13.7234C20.0301 12.9287 20.0301 12.1203 19.9097 11.3256L19.1687 11.4392C19.2232 11.7988 19.2506 12.1619 19.2505 12.5256ZM19.7665 14.444L19.0391 14.2644C18.8646 14.9729 18.5842 15.6511 18.2073 16.2759L18.8505 16.6623C19.2666 15.9736 19.5754 15.2256 19.7665 14.444ZM13.0864 19.6943C12.3663 19.8034 11.6337 19.8034 10.9136 19.6943L10.8022 20.4353C11.5962 20.5558 12.4038 20.5558 13.1978 20.4353L13.0864 19.6943ZM17.8368 16.8259C17.4048 17.4118 16.8868 17.929 16.3003 18.3601L16.7458 18.9647C17.3918 18.4892 17.9632 17.92 18.4414 17.276L17.8368 16.8259ZM16.3003 6.68886C16.8868 7.12083 17.4048 7.63881 17.8368 8.22533L18.4414 7.7753C17.9649 7.13067 17.395 6.56072 16.7503 6.08427L16.3003 6.68886ZM6.16322 8.22533C6.59519 7.63881 7.11317 7.12083 7.69969 6.68886L7.24966 6.08427C6.60503 6.56072 6.03508 7.13067 5.55863 7.7753L6.16322 8.22533ZM18.8505 8.38898L18.2073 8.77537C18.5841 9.39859 18.8646 10.0752 19.0391 10.7823L19.7665 10.6028C19.575 9.82271 19.2662 9.07627 18.8505 8.38898ZM10.9136 5.35695C11.6337 5.24784 12.3663 5.24784 13.0864 5.35695L13.1978 4.61599C12.4038 4.49552 11.5962 4.49552 10.8022 4.61599L10.9136 5.35695ZM6.54734 19.1647L4.9995 19.5239L5.36089 17.976L4.63129 17.8055L4.2699 19.3534C4.24729 19.4493 4.24382 19.5488 4.25969 19.6461C4.27556 19.7434 4.31046 19.8367 4.36239 19.9205C4.41432 20.0043 4.48227 20.077 4.56234 20.1346C4.64241 20.1921 4.73304 20.2333 4.82904 20.2557C4.9413 20.2807 5.0577 20.2807 5.16997 20.2557L6.71781 19.8989L6.54734 19.1647ZM4.78585 17.1373L5.51772 17.3055L5.76774 16.2327C5.40263 15.6203 5.13069 14.9569 4.96086 14.2644L4.23354 14.444C4.39714 15.1068 4.6446 15.7461 4.96995 16.3464L4.78585 17.1373ZM8.2861 18.7602L7.2133 19.0102L7.38376 19.742L8.17245 19.5579C8.77225 19.8843 9.41167 20.1318 10.0749 20.2944L10.2544 19.567C9.56408 19.395 8.90306 19.1215 8.29292 18.7556L8.2861 18.7602ZM12 6.02518C8.40884 6.02745 5.50181 8.93902 5.50181 12.5279C5.50379 13.7503 5.84955 14.9475 6.49961 15.9827L5.87456 18.6511L8.54066 18.026C11.5795 19.9375 15.5934 19.0261 17.5049 15.9895C19.4164 12.9529 18.5073 8.93902 15.4707 7.02525C14.4311 6.37152 13.228 6.02485 12 6.02518Z" fill="#1D6ADA"/>
</svg>
