<svg width="88" height="82" viewBox="0 0 88 82" fill="none" xmlns="http://www.w3.org/2000/svg">
<circle cx="34.9902" cy="35" r="35" fill="#EBF0F6"/>
<path d="M29.3418 73.9999V68.6666H53.3418V38.8666C52.1862 38.4666 51.1862 37.8444 50.3418 36.9999C49.4974 36.1555 48.8751 35.1555 48.4751 33.9999H40.0085L48.0085 52.6666C48.0085 54.8888 47.0974 56.7777 45.2751 58.3333C43.4529 59.8888 41.2529 60.6666 38.6751 60.6666C36.0974 60.6666 33.8974 59.8888 32.0751 58.3333C30.2529 56.7777 29.3418 54.8888 29.3418 52.6666L37.3418 33.9999H32.0085V28.6666H48.4751C49.0085 27.111 49.964 25.8333 51.3418 24.8333C52.7196 23.8333 54.2751 23.3333 56.0085 23.3333C57.7418 23.3333 59.2973 23.8333 60.6751 24.8333C62.0529 25.8333 63.0085 27.111 63.5418 28.6666H80.0085V33.9999H74.6751L82.6751 52.6666C82.6751 54.8888 81.764 56.7777 79.9418 58.3333C78.1196 59.8888 75.9196 60.6666 73.3418 60.6666C70.764 60.6666 68.564 59.8888 66.7418 58.3333C64.9196 56.7777 64.0085 54.8888 64.0085 52.6666L72.0085 33.9999H63.5418C63.1418 35.1555 62.5196 36.1555 61.6751 36.9999C60.8307 37.8444 59.8307 38.4666 58.6751 38.8666V68.6666H82.6751V73.9999H29.3418ZM68.3418 52.6666H78.3418L73.3418 41.0666L68.3418 52.6666ZM33.6751 52.6666H43.6751L38.6751 41.0666L33.6751 52.6666ZM56.0085 33.9999C56.764 33.9999 57.3974 33.7444 57.9085 33.2333C58.4196 32.7221 58.6751 32.0888 58.6751 31.3333C58.6751 30.5777 58.4196 29.9444 57.9085 29.4333C57.3974 28.9221 56.764 28.6666 56.0085 28.6666C55.2529 28.6666 54.6196 28.9221 54.1085 29.4333C53.5974 29.9444 53.3418 30.5777 53.3418 31.3333C53.3418 32.0888 53.5974 32.7221 54.1085 33.2333C54.6196 33.7444 55.2529 33.9999 56.0085 33.9999Z" fill="#1D6ADA"/>
</svg>
