<svg width="24" height="25" viewBox="0 0 24 25" fill="none" xmlns="http://www.w3.org/2000/svg">
<g clip-path="url(#clip0_70_535)">
<rect y="0.525635" width="24" height="24" rx="12" fill="#1D6ADA"/>
<path fill-rule="evenodd" clip-rule="evenodd" d="M24 12.5256C24 19.1531 18.6274 24.5256 12 24.5256C5.37258 24.5256 0 19.1531 0 12.5256C0 5.89822 5.37258 0.525635 12 0.525635C18.6274 0.525635 24 5.89822 24 12.5256ZM12.43 9.38456C11.2628 9.87003 8.93014 10.8748 5.43189 12.399C4.86383 12.6249 4.56626 12.8458 4.53917 13.0619C4.49339 13.4271 4.95071 13.5709 5.57347 13.7668C5.65818 13.7934 5.74595 13.821 5.83594 13.8502C6.44864 14.0494 7.27283 14.2824 7.70129 14.2917C8.08994 14.3001 8.52373 14.1398 9.00264 13.811C12.2712 11.6046 13.9584 10.4894 14.0643 10.4654C14.139 10.4484 14.2426 10.4271 14.3128 10.4895C14.3829 10.5518 14.376 10.67 14.3686 10.7016C14.3233 10.8948 12.5281 12.5637 11.5991 13.4274C11.3095 13.6967 11.1041 13.8877 11.0621 13.9313C10.968 14.029 10.8721 14.1214 10.78 14.2102C10.2108 14.759 9.78391 15.1705 10.8036 15.8424C11.2936 16.1653 11.6858 16.4324 12.077 16.6988C12.5042 16.9897 12.9303 17.2799 13.4816 17.6413C13.6221 17.7334 13.7562 17.829 13.8869 17.9222C14.3841 18.2766 14.8307 18.595 15.3826 18.5443C15.7032 18.5148 16.0345 18.2132 16.2027 17.314C16.6002 15.1888 17.3816 10.5841 17.5622 8.68661C17.578 8.52036 17.5581 8.30761 17.5422 8.21421C17.5262 8.12081 17.4928 7.98774 17.3714 7.88923C17.2276 7.77257 17.0056 7.74797 16.9064 7.74972C16.455 7.75767 15.7626 7.99845 12.43 9.38456Z" fill="white"/>
</g>
<defs>
<clipPath id="clip0_70_535">
<rect y="0.525635" width="24" height="24" rx="12" fill="white"/>
</clipPath>
</defs>
</svg>
