<svg width="24" height="25" viewBox="0 0 24 25" fill="none" xmlns="http://www.w3.org/2000/svg">
<rect y="0.525635" width="24" height="24" rx="12" fill="#FEFEFE"/>
<g clip-path="url(#clip0_70_529)">
<path d="M15.3814 4.52563H12.6849V15.4242C12.6849 16.7227 11.6478 17.7894 10.3572 17.7894C9.06656 17.7894 8.02947 16.7227 8.02947 15.4242C8.02947 14.1488 9.04352 13.1053 10.2881 13.059V10.3227C7.54549 10.3691 5.33301 12.6184 5.33301 15.4242C5.33301 18.2532 7.59158 20.5256 10.3802 20.5256C13.1689 20.5256 15.4274 18.23 15.4274 15.4242V9.83577C16.4415 10.5778 17.686 11.0184 18.9997 11.0416V8.30535C16.9716 8.23578 15.3814 6.56621 15.3814 4.52563Z" fill="#1D6ADA"/>
</g>
<defs>
<clipPath id="clip0_70_529">
<rect width="16" height="16" fill="white" transform="translate(4 4.52563)"/>
</clipPath>
</defs>
</svg>
