<svg width="26" height="21" viewBox="0 0 26 21" fill="none" xmlns="http://www.w3.org/2000/svg">
<path id="Vector 21" d="M25.1036 17.1036C25.2988 16.9083 25.2988 16.5917 25.1036 16.3964L21.9216 13.2145C21.7263 13.0192 21.4097 13.0192 21.2145 13.2145C21.0192 13.4097 21.0192 13.7263 21.2145 13.9216L24.0429 16.75L21.2145 19.5784C21.0192 19.7737 21.0192 20.0903 21.2145 20.2855C21.4097 20.4808 21.7263 20.4808 21.9216 20.2855L25.1036 17.1036ZM0.25 1.25V1.75L1.8125 1.75V1.25V0.75L0.25 0.75V1.25ZM4.9375 1.25V1.75L6.5 1.75V1.25V0.75L4.9375 0.75V1.25ZM6.5 1.25V1.75C7.48396 1.75 8.42094 1.94574 9.27508 2.29994L9.46661 1.83807L9.65813 1.37621C8.6847 0.972545 7.61771 0.75 6.5 0.75V1.25ZM13.6619 6.03339L13.2001 6.22492C13.5543 7.07906 13.75 8.01604 13.75 9H14.25H14.75C14.75 7.88229 14.5275 6.8153 14.1238 5.84187L13.6619 6.03339ZM14.25 9H13.75C13.75 10.1177 13.9725 11.1847 14.3762 12.1581L14.8381 11.9666L15.2999 11.7751C14.9457 10.9209 14.75 9.98396 14.75 9H14.25ZM19.0334 16.1619L18.8419 16.6238C19.8153 17.0275 20.8823 17.25 22 17.25V16.75V16.25C21.016 16.25 20.0791 16.0543 19.2249 15.7001L19.0334 16.1619ZM22 16.75V17.25H22.6875V16.75V16.25H22V16.75ZM24.0625 16.75V17.25H24.75V16.75V16.25H24.0625V16.75Z" fill="#1D6ADA"/>
</svg>
