<svg width="16" height="17" viewBox="0 0 16 17" fill="none" xmlns="http://www.w3.org/2000/svg">
<g id="verified" clip-path="url(#clip0_145_10980)">
<path id="Vector" d="M8.00759 1.93359C8.52612 1.93363 9.02688 2.12251 9.41626 2.46493L9.51893 2.56159L9.98426 3.02693C10.112 3.1538 10.2787 3.2339 10.4576 3.25426L10.5476 3.25959H11.2143C11.7591 3.25956 12.2832 3.46797 12.6793 3.84209C13.0754 4.2162 13.3133 4.72766 13.3443 5.27159L13.3476 5.39293V6.05959C13.3476 6.23959 13.4089 6.41493 13.5196 6.55493L13.5796 6.62159L14.0443 7.08693C14.4294 7.46989 14.654 7.98534 14.6722 8.52817C14.6904 9.07101 14.5009 9.60035 14.1423 10.0083L14.0456 10.1109L13.5803 10.5763C13.4534 10.704 13.3733 10.8707 13.3529 11.0496L13.3476 11.1396V11.8063C13.3476 12.3511 13.1392 12.8753 12.7651 13.2713C12.391 13.6674 11.8795 13.9053 11.3356 13.9363L11.2143 13.9396H10.5476C10.3678 13.9397 10.1934 14.0002 10.0523 14.1116L9.98559 14.1716L9.52026 14.6363C9.13729 15.0214 8.62185 15.246 8.07901 15.2642C7.53618 15.2824 7.00684 15.0929 6.59893 14.7343L6.49626 14.6376L6.03093 14.1723C5.90322 14.0454 5.73645 13.9653 5.55759 13.9449L5.46759 13.9396H4.80093C4.25611 13.9396 3.73193 13.7312 3.33588 13.3571C2.93983 12.983 2.70191 12.4715 2.67093 11.9276L2.66759 11.8063V11.1396C2.66753 10.9598 2.60694 10.7854 2.49559 10.6443L2.43559 10.5776L1.97093 10.1123C1.58578 9.7293 1.36121 9.21385 1.343 8.67101C1.32479 8.12818 1.51431 7.59884 1.87293 7.19093L1.96959 7.08826L2.43493 6.62293C2.5618 6.49522 2.64189 6.32846 2.66226 6.14959L2.66759 6.05959V5.39293L2.67093 5.27159C2.70069 4.74856 2.92188 4.25476 3.29232 3.88432C3.66276 3.51388 4.15656 3.2927 4.67959 3.26293L4.80093 3.25959H5.46759C5.64734 3.25953 5.82183 3.19895 5.96293 3.08759L6.02959 3.02759L6.49493 2.56293C6.69315 2.36352 6.92884 2.20526 7.18844 2.09726C7.44804 1.98926 7.72642 1.93363 8.00759 1.93359ZM10.4723 6.78826C10.3472 6.66328 10.1777 6.59307 10.0009 6.59307C9.82415 6.59307 9.65461 6.66328 9.52959 6.78826L7.33426 8.98293L6.47226 8.12159L6.40959 8.06626C6.2756 7.96265 6.10719 7.91393 5.93857 7.92999C5.76996 7.94606 5.61378 8.0257 5.50176 8.15274C5.38974 8.27979 5.33027 8.44471 5.33544 8.61401C5.34061 8.7833 5.41003 8.94429 5.52959 9.06426L6.86293 10.3976L6.92559 10.4529C7.05386 10.5524 7.21403 10.6017 7.37605 10.5915C7.53806 10.5813 7.6908 10.5124 7.80559 10.3976L10.4723 7.73093L10.5276 7.66826C10.6271 7.53999 10.6764 7.37982 10.6662 7.21781C10.656 7.05579 10.587 6.90306 10.4723 6.78826Z" fill="#1D6ADA"/>
</g>
<defs>
<clipPath id="clip0_145_10980">
<rect width="16" height="16" fill="white" transform="translate(0 0.59375)"/>
</clipPath>
</defs>
</svg>
