<svg width="24" height="25" viewBox="0 0 24 25" fill="none" xmlns="http://www.w3.org/2000/svg">
<rect y="0.525635" width="24" height="24" rx="12" fill="#FEFEFE"/>
<path fill-rule="evenodd" clip-rule="evenodd" d="M12.3074 4.10171C16.0801 4.11943 17.774 5.34998 18.1943 5.73484C19.5844 6.9426 20.3566 9.62144 19.8376 13.8524C19.381 17.5907 16.7735 18.2539 15.8987 18.4763C15.8131 18.4981 15.744 18.5157 15.6952 18.5315C15.4598 18.6075 13.3759 19.129 10.6693 18.9012C10.3705 19.248 9.97296 19.7038 9.68684 20.0127C9.60041 20.1058 9.51948 20.1978 9.44214 20.2856C9.05054 20.7306 8.75096 21.0709 8.29425 20.9293C7.84103 20.79 7.86635 20.1013 7.86635 20.1013L7.86888 18.4024H7.86635C3.90632 17.2883 3.96456 13.1839 4.01013 10.9912C4.05318 8.79854 4.47855 7.03122 5.68631 5.82346C7.85622 3.83332 12.3074 4.10171 12.3074 4.10171Z" fill="#1D6ADA"/>
<path d="M15.4494 17.2928C16.1928 17.1202 18.2691 16.6384 18.6525 13.5484C19.0905 10.0138 18.4904 7.60078 17.3156 6.59051C16.9611 6.26895 15.4318 5.30933 12.2389 5.29414C12.2389 5.29414 8.45869 5.046 6.62301 6.70698C5.60262 7.71471 5.25827 9.21365 5.22029 11.0443L5.21615 11.2308C5.1733 13.1028 5.09778 16.4022 8.33463 17.3008C8.33463 17.3008 8.32197 19.8961 8.31944 20.124C8.31944 20.2835 8.34476 20.3924 8.43591 20.4151C8.50174 20.4329 8.60049 20.3974 8.68404 20.3139C9.21829 19.7746 10.9324 17.7085 10.9324 17.7085C13.2315 17.8604 15.0596 17.4046 15.2571 17.3413C15.3025 17.3268 15.368 17.3116 15.4494 17.2928Z" fill="white"/>
<path d="M14.0726 10.8871C14.0783 11.0048 13.9875 11.1048 13.8698 11.1105C13.752 11.1162 13.652 11.0254 13.6463 10.9077C13.6111 10.1784 13.2723 9.82849 12.572 9.79129C12.4543 9.78504 12.364 9.68456 12.3702 9.56687C12.3765 9.44918 12.477 9.35884 12.5947 9.36509C13.5162 9.41405 14.0269 9.94151 14.0726 10.8871Z" fill="#1D6ADA"/>
<path d="M14.9484 11.4778C15.0663 11.4805 15.1639 11.3872 15.1666 11.2693C15.1856 10.4352 14.9358 9.73099 14.4167 9.1655C13.8968 8.599 13.1796 8.28533 12.2718 8.22087C12.1543 8.21253 12.0522 8.30106 12.0438 8.41862C12.0355 8.53618 12.124 8.63825 12.2416 8.6466C13.0457 8.70369 13.6602 8.97249 14.1023 9.4541C14.5447 9.93614 14.7564 10.533 14.7399 11.2596C14.7373 11.3775 14.8306 11.4752 14.9484 11.4778Z" fill="#1D6ADA"/>
<path d="M16.2883 11.7009C16.2892 11.8188 16.1944 11.915 16.0765 11.9159C15.9587 11.9168 15.8624 11.822 15.8616 11.7041C15.8518 10.4055 15.4686 9.39607 14.7132 8.65745C13.9551 7.91867 13.0129 7.54536 11.8806 7.53812C11.7628 7.53737 11.6678 7.44122 11.6686 7.32336C11.6693 7.20551 11.7655 7.11058 11.8833 7.11133C13.1241 7.11927 14.1726 7.53466 15.0113 8.35205C15.853 9.175 16.2778 10.294 16.2883 11.7009Z" fill="#1D6ADA"/>
<path d="M13.0872 13.5813C12.9277 13.7813 12.6264 13.756 12.6264 13.756C10.4337 13.1964 9.84626 10.9758 9.84626 10.9758C9.84626 10.9758 9.82094 10.6771 10.021 10.515L10.416 10.2011C10.6135 10.0491 10.7375 9.682 10.5375 9.32246C10.4261 9.12244 10.2033 8.76543 10.0387 8.54008C9.86398 8.30207 9.45887 7.81593 9.45634 7.8134C9.26137 7.58046 8.97273 7.52728 8.66889 7.68427C8.66889 7.68427 8.66636 7.6868 8.66382 7.6868C8.37518 7.84885 8.10679 8.0666 7.85612 8.34258L7.85106 8.34765C7.66369 8.57299 7.55481 8.79581 7.52949 9.01356C7.52443 9.03888 7.5219 9.0718 7.52443 9.10978C7.5219 9.20599 7.53709 9.29967 7.56747 9.39336L7.5776 9.40095C7.67129 9.73771 7.90929 10.2973 8.42329 11.2316C8.75751 11.8367 9.09933 12.3431 9.43861 12.7685C9.61585 12.9938 9.81841 13.2242 10.0514 13.4597L10.1425 13.5509C10.378 13.7838 10.6084 13.9864 10.8337 14.1636C11.2591 14.5029 11.763 14.8447 12.3706 15.1789C13.305 15.6929 13.8645 15.9309 14.2013 16.0246L14.2089 16.0348C14.3026 16.0651 14.3962 16.0778 14.4925 16.0778C14.5304 16.0803 14.5633 16.0778 14.5887 16.0727C14.8064 16.0474 15.0292 15.9385 15.2546 15.7512L15.2596 15.7461C15.5356 15.4954 15.7534 15.2245 15.9154 14.9384C15.9154 14.9384 15.918 14.9359 15.918 14.9333C16.0749 14.6295 16.0218 14.3409 15.7888 14.1459C15.7888 14.1459 15.3002 13.7382 15.0621 13.5635C14.8393 13.399 14.4798 13.1787 14.2798 13.0647C13.9202 12.8647 13.5531 12.9888 13.4012 13.1863L13.0872 13.5813Z" fill="#1D6ADA"/>
</svg>
