<svg width="24" height="25" viewBox="0 0 24 25" fill="none" xmlns="http://www.w3.org/2000/svg">
<rect y="0.525635" width="24" height="24" rx="12" fill="#FEFEFE"/>
<path d="M4 20.5256L5.12466 16.417C4.43067 15.2143 4.066 13.851 4.06667 12.453C4.06867 8.0823 7.62533 4.52563 11.9953 4.52563C14.116 4.5263 16.1066 5.3523 17.604 6.85097C19.1006 8.34963 19.9246 10.3416 19.924 12.4603C19.922 16.8316 16.3653 20.3883 11.9953 20.3883C10.6687 20.3876 9.36132 20.055 8.20332 19.423L4 20.5256ZM8.39799 17.9876C9.51532 18.651 10.582 19.0483 11.9926 19.049C15.6246 19.049 18.5833 16.093 18.5853 12.459C18.5866 8.81763 15.642 5.86563 11.998 5.8643C8.36332 5.8643 5.40666 8.8203 5.40533 12.4536C5.40466 13.937 5.83933 15.0476 6.56933 16.2096L5.90333 18.6416L8.39799 17.9876ZM15.9893 14.345C15.94 14.2623 15.808 14.213 15.6093 14.1136C15.4113 14.0143 14.4373 13.535 14.2553 13.469C14.074 13.403 13.942 13.3696 13.8093 13.5683C13.6773 13.7663 13.2973 14.213 13.182 14.345C13.0666 14.477 12.9506 14.4936 12.7526 14.3943C12.5546 14.295 11.916 14.0863 11.1593 13.411C10.5707 12.8856 10.1727 12.237 10.0573 12.0383C9.94199 11.8403 10.0453 11.733 10.144 11.6343C10.2333 11.5456 10.342 11.403 10.4413 11.287C10.542 11.1723 10.5747 11.0896 10.6413 10.957C10.7073 10.825 10.6747 10.709 10.6247 10.6096C10.5747 10.511 10.1787 9.53563 10.014 9.13897C9.85265 8.75297 9.68932 8.80497 9.56799 8.79897L9.18799 8.7923C9.05599 8.7923 8.84132 8.84163 8.65999 9.0403C8.47866 9.23897 7.96666 9.71764 7.96666 10.693C7.96666 11.6683 8.67666 12.6103 8.77532 12.7423C8.87466 12.8743 10.172 14.8756 12.1593 15.7336C12.632 15.9376 13.0013 16.0596 13.2886 16.151C13.7633 16.3016 14.1953 16.2803 14.5366 16.2296C14.9173 16.173 15.7086 15.7503 15.874 15.2876C16.0393 14.8243 16.0393 14.4276 15.9893 14.345Z" fill="#1D6ADA"/>
</svg>
