<svg width="24" height="25" viewBox="0 0 24 25" fill="none" xmlns="http://www.w3.org/2000/svg">
<rect y="0.525635" width="24" height="24" rx="12" fill="#FEFEFE"/>
<path d="M19.8406 9.32559C19.8406 9.32559 19.6844 8.22246 19.2031 7.73809C18.5938 7.10059 17.9125 7.09746 17.6 7.05996C15.3625 6.89746 12.0031 6.89746 12.0031 6.89746H11.9969C11.9969 6.89746 8.6375 6.89746 6.4 7.05996C6.0875 7.09746 5.40625 7.10059 4.79688 7.73809C4.31563 8.22246 4.1625 9.32559 4.1625 9.32559C4.1625 9.32559 4 10.6225 4 11.9162V13.1287C4 14.4225 4.15937 15.7193 4.15937 15.7193C4.15937 15.7193 4.31562 16.8225 4.79375 17.3068C5.40313 17.9443 6.20313 17.9225 6.55938 17.9912C7.84063 18.1131 12 18.1506 12 18.1506C12 18.1506 15.3625 18.1443 17.6 17.985C17.9125 17.9475 18.5938 17.9443 19.2031 17.3068C19.6844 16.8225 19.8406 15.7193 19.8406 15.7193C19.8406 15.7193 20 14.4256 20 13.1287V11.9162C20 10.6225 19.8406 9.32559 19.8406 9.32559ZM10.3469 14.6006V10.1037L14.6687 12.36L10.3469 14.6006Z" fill="#1D6ADA"/>
</svg>
